<svg xmlns="http://www.w3.org/2000/svg" width="16" height="16" viewBox="0 0 16 16" fill="currentColor">
  <path d="M7.66061 0.634281C5.33494 0.634281 3.42754 2.53916 3.42754 4.86735C3.42754 6.28845 4.14313 7.55082 5.22912 8.3168C3.95615 8.82611 2.86466 9.70461 2.09503 10.8393C1.3254 11.974 0.912825 13.313 0.910376 14.684C0.890219 15.5911 2.26345 15.5911 2.24581 14.684C2.24386 13.6995 2.50533 12.7324 3.00312 11.8831C3.5009 11.0337 4.21686 10.3329 5.07674 9.8535C5.93662 9.37408 6.90911 9.13343 7.89334 9.15652C8.87757 9.17962 9.8377 9.46561 10.6742 9.98483C11.4326 10.451 12.1305 9.31208 11.3721 8.84593C10.9864 8.61411 10.5787 8.42084 10.1551 8.26893C10.8754 7.74347 11.4109 7.00351 11.6849 6.15506C11.9589 5.30662 11.9573 4.39321 11.6804 3.54571C11.4035 2.69821 10.8655 1.96009 10.1434 1.4371C9.4213 0.914113 8.5522 0.633086 7.66061 0.634281ZM7.66061 1.96971C9.26817 1.96971 10.5583 3.25979 10.5583 4.86735C10.5583 6.47491 9.26565 7.75995 7.65809 7.75995C6.05305 7.75995 4.76045 6.47491 4.76045 4.86735C4.76045 3.25979 6.05557 1.96971 7.66061 1.96971ZM11.7501 13.3108V14.6463C11.7702 15.513 13.0653 15.513 13.0855 14.6463V13.3108H14.4209C15.3079 13.3108 15.3079 11.9754 14.4209 11.9754H13.0855V10.6425C13.0855 10.4654 13.0151 10.2955 12.8899 10.1703C12.7647 10.0451 12.5949 9.97475 12.4178 9.97475C12.2407 9.97475 12.0709 10.0451 11.9456 10.1703C11.8204 10.2955 11.7501 10.4654 11.7501 10.6425V11.9779H10.3869C9.46471 12.0182 9.53022 13.3537 10.4171 13.3133L11.7501 13.3108Z" fill="currentColor"/>
</svg>