<svg width="121" height="124" viewBox="0 0 121 124" fill="none" xmlns="http://www.w3.org/2000/svg">
<mask id="mask0_937_3756" style="mask-type:luminance" maskUnits="userSpaceOnUse" x="0" y="0" width="121" height="124">
<path d="M120.73 0H0V123.461H120.73V0Z" fill="white"/>
</mask>
<g mask="url(#mask0_937_3756)">
<mask id="mask1_937_3756" style="mask-type:luminance" maskUnits="userSpaceOnUse" x="0" y="21" width="94" height="103">
<path d="M0.121094 21.8516H93.1425V123.221H0.121094V21.8516Z" fill="white"/>
</mask>
<g mask="url(#mask1_937_3756)">
<mask id="mask2_937_3756" style="mask-type:luminance" maskUnits="userSpaceOnUse" x="0" y="21" width="94" height="103">
<path d="M93.142 21.8516H0V123.461H93.142V21.8516Z" fill="white"/>
</mask>
<g mask="url(#mask2_937_3756)">
<path d="M29.648 75.4679C29.7622 75.517 29.8529 75.5853 29.9212 75.6727C30.5731 76.8453 31.4939 77.9091 32.6825 78.8651C33.8721 79.8211 35.3926 80.4432 37.2448 80.7302C39.0971 81.0183 41.3943 80.6662 44.1374 79.676C46.265 78.8971 48.2132 77.8013 49.9801 76.3897C50.153 76.251 50.3525 76.0569 50.5776 75.8093C50.8785 75.5682 51.0941 75.3943 51.2221 75.2886C53.1992 73.431 54.6759 71.3899 55.6521 69.1642C56.6273 66.9364 57.0573 64.7555 56.941 62.6216C56.8269 60.4877 56.1152 58.6013 54.8071 56.9624C53.6004 55.4548 52.0415 54.3878 50.1295 53.7615C48.2175 53.1331 46.1231 52.9869 43.8472 53.3219L20.6684 56.7917C18.0767 57.1705 15.6825 57.0008 13.4856 56.2838C11.2866 55.5668 9.49833 54.3451 8.12088 52.6177C8.08673 52.5782 8.05686 52.4971 8.03125 52.3744C8.03979 52.2955 8.08887 52.2208 8.17636 52.1525L9.20918 51.3245C9.3799 51.188 9.53354 51.205 9.67011 51.3758C12.2116 53.9429 15.6579 54.9 20.0112 54.248L43.19 50.7697C45.7507 50.3547 48.1375 50.5169 50.3514 51.2563C52.5643 51.9967 54.36 53.227 55.7375 54.948C57.2163 56.8034 58.0347 58.9576 58.1915 61.4095C58.3505 63.8593 57.8672 66.3464 56.7404 68.8698C55.6137 71.3942 53.9119 73.7053 51.6361 75.805C51.5422 75.9534 51.364 76.1315 51.1026 76.3385L50.9788 76.4367C50.7622 76.6106 50.567 76.7675 50.3941 76.9062C48.5813 78.3519 46.568 79.5 44.3551 80.3503C41.0688 81.6307 37.9277 81.9871 34.9316 81.4173C31.9335 80.8454 29.5562 79.4605 27.8 77.2604C27.6635 77.0897 27.6827 76.935 27.8555 76.7952L29.4047 75.5575C29.4901 75.4871 29.5712 75.4572 29.648 75.4679ZM59.5188 75.8648C63.6757 74.5247 67.4197 74.5738 70.7519 76.0099C70.865 76.059 70.9332 76.1443 70.9567 76.266C70.9877 76.3855 70.9589 76.4815 70.8714 76.5519L70.0989 77.1708C69.9676 77.2732 69.8279 77.2764 69.6806 77.1793C67.0452 75.4722 63.7323 75.2577 59.7408 76.5349L59.5615 76.5775L59.378 76.6202C59.2126 76.6778 59.0494 76.7354 58.8872 76.7952L58.8232 76.8464C56.6914 77.6317 54.7602 78.752 53.0274 80.2052C52.8994 80.3077 52.6828 80.4805 52.3787 80.7216C52.1226 80.9265 51.9071 81.0993 51.7342 81.238C49.6483 83.3976 48.0991 85.8345 47.0865 88.5489C46.0729 91.2633 45.8211 93.6896 46.3311 95.8256C46.393 95.991 46.3589 96.1265 46.2287 96.2311L45.5842 96.7475C45.453 96.8499 45.3324 96.8745 45.2215 96.82C45.1073 96.7688 45.039 96.6835 45.0166 96.564C44.5407 94.1142 44.8779 91.4425 46.0281 88.5489C47.1772 85.6532 48.9196 83.0604 51.2562 80.7728L51.3203 80.7216C51.4483 80.6192 51.6275 80.4432 51.858 80.1924L51.9818 80.09C52.2432 79.883 52.4384 79.7272 52.5665 79.6248C54.3782 78.1769 56.3915 77.0278 58.6055 76.1764C58.693 76.1081 58.7858 76.0697 58.8829 76.0611C58.9821 76.0505 59.075 76.0099 59.1603 75.9416C59.2798 75.916 59.3993 75.8904 59.5188 75.8648Z" fill="black"/>
</g>
</g>
<mask id="mask3_937_3756" style="mask-type:luminance" maskUnits="userSpaceOnUse" x="27" y="0" width="94" height="102">
<path d="M27.5898 0.23999H120.611V101.609H27.5898V0.23999Z" fill="white"/>
</mask>
<g mask="url(#mask3_937_3756)">
<mask id="mask4_937_3756" style="mask-type:luminance" maskUnits="userSpaceOnUse" x="27" y="0" width="94" height="102">
<path d="M120.732 0H27.5898V101.609H120.732V0Z" fill="white"/>
</mask>
<g mask="url(#mask4_937_3756)">
<path d="M91.0786 47.9921C90.9644 47.9431 90.8737 47.8748 90.8054 47.7873C90.1535 46.6147 89.2327 45.5509 88.0441 44.5949C86.8544 43.6389 85.334 43.0169 83.4818 42.7299C81.6295 42.4418 79.3323 42.7939 76.5891 43.784C74.4616 44.5629 72.5133 45.6587 70.7464 47.0703C70.5736 47.209 70.3741 47.4032 70.1489 47.6507C69.848 47.8918 69.6325 48.0658 69.5045 48.1714C67.5274 50.029 66.0507 52.0701 65.0744 54.2958C64.0992 56.5236 63.6692 58.7045 63.7855 60.8384C63.8997 62.9724 64.6114 64.8588 65.9195 66.4976C67.1262 68.0052 68.685 69.0722 70.5971 69.6985C72.5091 70.327 74.6035 70.4731 76.8794 70.1381L100.058 66.6683C102.65 66.2896 105.044 66.4592 107.241 67.1762C109.44 67.8932 111.228 69.1149 112.606 70.8423C112.64 70.8818 112.67 70.9629 112.695 71.0856C112.687 71.1645 112.638 71.2392 112.55 71.3075L111.517 72.1355C111.347 72.272 111.193 72.255 111.056 72.0843C108.515 69.5171 105.069 68.5601 100.715 69.212L77.5366 72.6903C74.9759 73.1054 72.5891 72.9432 70.3751 72.2038C68.1622 71.4633 66.3665 70.2331 64.9891 68.5121C63.5103 66.6566 62.6919 64.5024 62.535 62.0505C62.3761 59.6007 62.8594 57.1136 63.9861 54.5903C65.1128 52.0658 66.8147 49.7548 69.0905 47.655C69.1844 47.5067 69.3626 47.3285 69.624 47.1215L69.7477 47.0233C69.9643 46.8494 70.1596 46.6926 70.3324 46.5539C72.1452 45.1081 74.1586 43.9601 76.3715 43.1097C79.6577 41.8293 82.7989 41.473 85.7949 42.0427C88.7931 42.6146 91.1703 43.9995 92.9265 46.1996C93.0631 46.3703 93.0439 46.5251 92.8711 46.6648L91.3218 47.9025C91.2365 47.9729 91.1554 48.0028 91.0786 47.9921ZM61.2077 47.5952C57.0508 48.9353 53.3068 48.8863 49.9747 47.4501C49.8616 47.401 49.7933 47.3157 49.7698 47.194C49.7389 47.0745 49.7677 46.9785 49.8552 46.9081L50.6277 46.2893C50.7589 46.1868 50.8987 46.1836 51.0459 46.2807C53.6814 47.9879 56.9943 48.2023 60.9858 46.9252L61.1651 46.8825L61.3486 46.8398C61.514 46.7822 61.6772 46.7246 61.8394 46.6648L61.9034 46.6136C64.0352 45.8283 65.9664 44.708 67.6992 43.2548C67.8272 43.1524 68.0438 42.9795 68.3479 42.7384C68.604 42.5335 68.8195 42.3607 68.9923 42.222C71.0783 40.0624 72.6275 37.6255 73.64 34.9111C74.6537 32.1968 74.9055 29.7705 74.3955 27.6344C74.3336 27.469 74.3677 27.3335 74.4979 27.229L75.1423 26.7125C75.2736 26.6101 75.3941 26.5856 75.5051 26.64C75.6193 26.6912 75.6876 26.7766 75.71 26.8961C76.1858 29.3458 75.8487 32.0175 74.6985 34.9111C73.5494 37.8069 71.807 40.3996 69.4703 42.6872L69.4063 42.7384C69.2783 42.8408 69.099 43.0169 68.8686 43.2676L68.7448 43.37C68.4834 43.577 68.2881 43.7328 68.1601 43.8352C66.3484 45.2831 64.335 46.4322 62.1211 47.2837C62.0336 47.352 61.9407 47.3904 61.8437 47.3989C61.7444 47.4096 61.6516 47.4501 61.5662 47.5184C61.4467 47.544 61.3272 47.5696 61.2077 47.5952Z" fill="black"/>
</g>
</g>
</g>
</svg>
