<svg width="19" height="19" viewBox="0 0 19 19" fill="none" xmlns="http://www.w3.org/2000/svg">
<path d="M10.6667 1.33333C10.6667 0.979711 10.5262 0.640573 10.2761 0.390525C10.0261 0.140476 9.68695 0 9.33333 0C8.97971 0 8.64057 0.140476 8.39052 0.390525C8.14048 0.640573 8 0.979711 8 1.33333V8H1.33333C0.979711 8 0.640573 8.14048 0.390525 8.39052C0.140476 8.64057 0 8.97971 0 9.33333C0 9.68695 0.140476 10.0261 0.390525 10.2761C0.640573 10.5262 0.979711 10.6667 1.33333 10.6667H8V17.3333C8 17.687 8.14048 18.0261 8.39052 18.2761C8.64057 18.5262 8.97971 18.6667 9.33333 18.6667C9.68695 18.6667 10.0261 18.5262 10.2761 18.2761C10.5262 18.0261 10.6667 17.687 10.6667 17.3333V10.6667H17.3333C17.687 10.6667 18.0261 10.5262 18.2761 10.2761C18.5262 10.0261 18.6667 9.68695 18.6667 9.33333C18.6667 8.97971 18.5262 8.64057 18.2761 8.39052C18.0261 8.14048 17.687 8 17.3333 8H10.6667V1.33333Z" fill="white"/>
</svg>
