<svg xmlns="http://www.w3.org/2000/svg" width="16" height="16" viewBox="0 0 16 16" fill="currentColor">
  <path d="M4.05133 11.3333L2.46467 12.92C2.37889 13.0058 2.28 13.0273 2.168 12.9847C2.056 12.942 2 12.8598 2 12.738V3.078C2 2.77089 2.10289 2.51467 2.30867 2.30933C2.51444 2.104 2.77044 2.00089 3.07667 2H12.9233C13.23 2 13.486 2.10289 13.6913 2.30867C13.8967 2.51444 13.9996 2.77067 14 3.07733V10.2567C14 10.5633 13.8971 10.8196 13.6913 11.0253C13.4856 11.2311 13.2296 11.3338 12.9233 11.3333H4.05133ZM8 8.11133L9.11333 8.78867C9.20933 8.84911 9.30578 8.84422 9.40267 8.774C9.49911 8.70333 9.53511 8.60867 9.51067 8.49L9.21533 7.232L10.1953 6.39C10.2887 6.30689 10.3176 6.21089 10.282 6.102C10.2464 5.99311 10.1678 5.93311 10.046 5.922L8.75533 5.80533L8.24867 4.618C8.20156 4.51 8.11867 4.456 8 4.456C7.88133 4.456 7.79844 4.51 7.75133 4.618L7.24467 5.80467L5.954 5.922C5.83267 5.93311 5.754 5.99311 5.718 6.102C5.682 6.21089 5.71089 6.30689 5.80467 6.39L6.78467 7.232L6.49 8.48933C6.46511 8.60844 6.50089 8.70333 6.59733 8.774C6.69378 8.84467 6.79044 8.84956 6.88733 8.78867L8 8.11133Z" fill="currentColor"/>
</svg>