<svg width="96" height="96" viewBox="0 0 96 96" fill="none" xmlns="http://www.w3.org/2000/svg">
<mask id="mask0_371_12782" style="mask-type:luminance" maskUnits="userSpaceOnUse" x="0" y="0" width="96" height="96">
<path d="M96 0H0V96H96V0Z" fill="white"/>
</mask>
<g mask="url(#mask0_371_12782)">
<mask id="mask1_371_12782" style="mask-type:luminance" maskUnits="userSpaceOnUse" x="0" y="16" width="75" height="80">
<path d="M0.0958643 16.9907H74.0634V95.8129H0.0958643V16.9907Z" fill="white"/>
</mask>
<g mask="url(#mask1_371_12782)">
<mask id="mask2_371_12782" style="mask-type:luminance" maskUnits="userSpaceOnUse" x="0" y="16" width="75" height="80">
<path d="M74.0634 16.9907H1.14441e-05V95.9996H74.0634V16.9907Z" fill="white"/>
</mask>
<g mask="url(#mask2_371_12782)">
<path d="M23.5752 58.6819C23.666 58.7201 23.7381 58.7732 23.7924 58.8412C24.3108 59.753 25.0429 60.5801 25.9881 61.3235C26.9341 62.0669 28.1431 62.5505 29.6159 62.7737C31.0888 62.9977 32.9154 62.7239 35.0967 61.954C36.7884 61.3484 38.3376 60.4963 39.7426 59.3987C39.88 59.2909 40.0387 59.1399 40.2177 58.9474C40.457 58.7599 40.6284 58.6247 40.7302 58.5425C42.3023 57.0981 43.4765 55.511 44.2528 53.7804C45.0282 52.0481 45.3702 50.3523 45.2777 48.693C45.1869 47.0337 44.621 45.5669 43.5808 44.2925C42.6213 43.1202 41.3817 42.2906 39.8614 41.8036C38.341 41.3149 36.6756 41.2013 34.8659 41.4618L16.4349 44.1598C14.3741 44.4543 12.4703 44.3224 10.7234 43.7649C8.97478 43.2074 7.55284 42.2574 6.45753 40.9142C6.43038 40.8835 6.40663 40.8205 6.38626 40.7251C6.39305 40.6637 6.43208 40.6056 6.50165 40.5525L7.32292 39.9087C7.45866 39.8025 7.58084 39.8158 7.68943 39.9485C9.71036 41.9446 12.4507 42.6888 15.9123 42.1819L34.3433 39.4773C36.3795 39.1545 38.2774 39.2806 40.0379 39.8556C41.7975 40.4314 43.2254 41.3879 44.3207 42.7262C45.4966 44.1689 46.1473 45.844 46.272 47.7505C46.3984 49.6554 46.0141 51.5893 45.1182 53.5514C44.2222 55.5143 42.869 57.3113 41.0593 58.9441C40.9847 59.0594 40.843 59.1979 40.6351 59.3589L40.5367 59.4352C40.3645 59.5705 40.2092 59.6924 40.0718 59.8003C38.6303 60.9244 37.0294 61.8171 35.2698 62.4784C32.6566 63.4739 30.1589 63.751 27.7765 63.308C25.3925 62.8633 23.5022 61.7864 22.1057 60.0757C21.9971 59.943 22.0124 59.8227 22.1498 59.714L23.3817 58.7516C23.4496 58.6968 23.5141 58.6736 23.5752 58.6819ZM47.3274 58.9905C50.6329 57.9485 53.61 57.9867 56.2596 59.1034C56.3495 59.1415 56.4038 59.2079 56.4225 59.3025C56.4471 59.3954 56.4242 59.4701 56.3546 59.5248L55.7403 60.006C55.636 60.0857 55.5248 60.0882 55.4078 60.0127C53.3122 58.6852 50.6778 58.5185 47.5039 59.5116L47.3614 59.5447L47.2155 59.5779C47.084 59.6227 46.9541 59.6675 46.8252 59.714L46.7743 59.7538C45.0791 60.3644 43.5435 61.2356 42.1657 62.3655C42.0639 62.4452 41.8916 62.5796 41.6498 62.7671C41.4462 62.9264 41.2748 63.0608 41.1374 63.1686C39.4787 64.8478 38.2468 66.7428 37.4417 68.8534C36.6357 70.964 36.4355 72.8506 36.841 74.5116C36.8902 74.6402 36.8631 74.7455 36.7596 74.8268L36.2471 75.2284C36.1428 75.308 36.0469 75.3271 35.9587 75.2848C35.8679 75.245 35.8136 75.1786 35.7958 75.0857C35.4174 73.1808 35.6855 71.1034 36.6001 68.8534C37.5138 66.6017 38.8993 64.5857 40.7573 62.8069L40.8082 62.7671C40.91 62.6874 41.0526 62.5505 41.2358 62.3556L41.3342 62.2759C41.5421 62.115 41.6974 61.9939 41.7992 61.9142C43.2398 60.7884 44.8407 59.8949 46.6012 59.2328C46.6708 59.1797 46.7446 59.1498 46.8218 59.1432C46.9007 59.1349 46.9745 59.1034 47.0424 59.0503C47.1374 59.0304 47.2324 59.0104 47.3274 58.9905Z" fill="white"/>
</g>
</g>
<mask id="mask3_371_12782" style="mask-type:luminance" maskUnits="userSpaceOnUse" x="21" y="0" width="75" height="80">
<path d="M21.9366 0.18457H95.9041V79.0067H21.9366V0.18457Z" fill="white"/>
</mask>
<g mask="url(#mask3_371_12782)">
<mask id="mask4_371_12782" style="mask-type:luminance" maskUnits="userSpaceOnUse" x="21" y="0" width="75" height="80">
<path d="M96 0H21.9367V79.0088H96V0Z" fill="white"/>
</mask>
<g mask="url(#mask4_371_12782)">
<path d="M72.4214 37.3186C72.3307 37.2805 72.2585 37.2274 72.2042 37.1593C71.6859 36.2476 70.9537 35.4204 70.0085 34.677C69.0626 33.9337 67.8536 33.45 66.3807 33.2268C64.9079 33.0028 63.0812 33.2766 60.8999 34.0465C59.2082 34.6521 57.659 35.5042 56.254 36.6018C56.1166 36.7097 55.9579 36.8607 55.7789 37.0531C55.5396 37.2406 55.3683 37.3759 55.2665 37.458C53.6943 38.9024 52.5201 40.4895 51.7438 42.2202C50.9684 43.9525 50.6265 45.6483 50.7189 47.3076C50.8097 48.9669 51.3756 50.4337 52.4158 51.708C53.3753 52.8803 54.6149 53.7099 56.1352 54.1969C57.6556 54.6856 59.321 54.7993 61.1307 54.5388L79.5617 51.8407C81.6225 51.5462 83.5264 51.6781 85.2732 52.2357C87.0218 52.7932 88.4438 53.7431 89.5391 55.0863C89.5662 55.117 89.59 55.1801 89.6103 55.2755C89.6036 55.3369 89.5645 55.395 89.495 55.4481L88.6737 56.0919C88.538 56.1981 88.4158 56.1848 88.3072 56.052C86.2863 54.0559 83.5459 53.3117 80.0843 53.8186L61.6533 56.5233C59.6171 56.846 57.7192 56.7199 55.9588 56.145C54.1991 55.5692 52.7713 54.6126 51.676 53.2744C50.5 51.8316 49.8493 50.1566 49.7246 48.25C49.5982 46.3452 49.9825 44.4113 50.8784 42.4492C51.7744 40.4862 53.1276 38.6892 54.9373 37.0565C55.0119 36.9411 55.1536 36.8026 55.3615 36.6416L55.4599 36.5653C55.6321 36.4301 55.7874 36.3081 55.9248 36.2003C57.3663 35.0761 58.9672 34.1834 60.7269 33.5222C63.34 32.5266 65.8377 32.2495 68.2201 32.6925C70.6041 33.1372 72.4944 34.2141 73.8909 35.9248C73.9995 36.0576 73.9842 36.1779 73.8468 36.2865L72.6149 37.2489C72.547 37.3037 72.4825 37.3269 72.4214 37.3186ZM48.6692 37.01C45.3637 38.052 42.3866 38.0139 39.737 36.8972C39.6471 36.859 39.5928 36.7926 39.5741 36.6981C39.5495 36.6051 39.5724 36.5305 39.642 36.4757L40.2563 35.9945C40.3606 35.9149 40.4718 35.9124 40.5888 35.9879C42.6844 37.3153 45.3188 37.4821 48.4927 36.489L48.6352 36.4558L48.7812 36.4226C48.9127 36.3778 49.0425 36.333 49.1714 36.2865L49.2223 36.2467C50.9175 35.6361 52.4531 34.765 53.8309 33.635C53.9327 33.5554 54.105 33.421 54.3468 33.2335C54.5504 33.0742 54.7218 32.9398 54.8592 32.8319C56.5179 31.1527 57.7498 29.2578 58.5549 27.1472C59.3609 25.0365 59.5611 23.1499 59.1556 21.489C59.1064 21.3604 59.1335 21.255 59.237 21.1737L59.7495 20.7722C59.8538 20.6925 59.9497 20.6734 60.0379 20.7158C60.1287 20.7556 60.183 20.8219 60.2008 20.9149C60.5792 22.8197 60.3111 24.8972 59.3965 27.1472C58.4828 29.3988 57.0973 31.4149 55.2393 33.1936L55.1884 33.2335C55.0866 33.3131 54.9441 33.45 54.7608 33.645L54.6624 33.7246C54.4545 33.8856 54.2993 34.0067 54.1974 34.0863C52.7568 35.2122 51.1559 36.1057 49.3954 36.7677C49.3258 36.8208 49.252 36.8507 49.1748 36.8573C49.0959 36.8656 49.0221 36.8972 48.9542 36.9503C48.8592 36.9702 48.7642 36.9901 48.6692 37.01Z" fill="white"/>
</g>
</g>
</g>
</svg>
