<svg width="32" height="32" viewBox="0 0 32 32" fill="none" xmlns="http://www.w3.org/2000/svg">
<mask id="mask0_371_12782" style="mask-type:luminance" maskUnits="userSpaceOnUse" x="0" y="0" width="32" height="32">
<path d="M32 0H0V32H32V0Z" fill="white"/>
</mask>
<g mask="url(#mask0_371_12782)">
<mask id="mask1_371_12782" style="mask-type:luminance" maskUnits="userSpaceOnUse" x="0" y="5" width="25" height="27">
<path d="M0.031949 5.66357H24.6878V31.9376H0.031949V5.66357Z" fill="white"/>
</mask>
<g mask="url(#mask1_371_12782)">
<mask id="mask2_371_12782" style="mask-type:luminance" maskUnits="userSpaceOnUse" x="0" y="5" width="25" height="27">
<path d="M24.6878 5.66357H1.14441e-05V31.9999H24.6878V5.66357Z" fill="white"/>
</mask>
<g mask="url(#mask2_371_12782)">
<path d="M7.8584 19.5606C7.88866 19.5734 7.9127 19.5911 7.9308 19.6137C8.1036 19.9177 8.34766 20.1934 8.6627 20.4412C8.97803 20.689 9.38103 20.8502 9.87198 20.9246C10.3629 20.9992 10.9718 20.908 11.6989 20.6513C12.2628 20.4495 12.7792 20.1654 13.2475 19.7996C13.2934 19.7636 13.3462 19.7133 13.4059 19.6491C13.4857 19.5866 13.5428 19.5416 13.5767 19.5142C14.1008 19.0327 14.4922 18.5037 14.7509 17.9268C15.0094 17.3494 15.1234 16.7841 15.0926 16.231C15.0623 15.6779 14.8737 15.189 14.527 14.7642C14.2071 14.3734 13.7939 14.0969 13.2871 13.9345C12.7803 13.7716 12.2252 13.7338 11.622 13.8206L5.47831 14.7199C4.79138 14.8181 4.15676 14.7741 3.57447 14.5883C2.9916 14.4025 2.51762 14.0858 2.15252 13.6381C2.14347 13.6278 2.13555 13.6068 2.12877 13.575C2.13103 13.5546 2.14404 13.5352 2.16723 13.5175L2.44098 13.3029C2.48623 13.2675 2.52696 13.2719 2.56315 13.3162C3.2368 13.9815 4.15026 14.2296 5.3041 14.0606L11.4478 13.1591C12.1265 13.0515 12.7591 13.0935 13.346 13.2852C13.9325 13.4771 14.4085 13.796 14.7736 14.2421C15.1655 14.723 15.3824 15.2813 15.424 15.9168C15.4662 16.5518 15.338 17.1964 15.0394 17.8505C14.7408 18.5048 14.2897 19.1038 13.6865 19.648C13.6616 19.6865 13.6143 19.7327 13.5451 19.7863L13.5122 19.8117C13.4548 19.8568 13.4031 19.8975 13.3573 19.9334C12.8768 20.3081 12.3431 20.6057 11.7566 20.8261C10.8856 21.158 10.053 21.2503 9.25886 21.1027C8.46417 20.9544 7.83408 20.5955 7.36858 20.0252C7.33239 19.981 7.33748 19.9409 7.38329 19.9047L7.79392 19.5839C7.81655 19.5656 7.83804 19.5579 7.8584 19.5606ZM15.7758 19.6635C16.8776 19.3162 17.87 19.3289 18.7532 19.7011C18.7832 19.7138 18.8013 19.736 18.8075 19.7675C18.8157 19.7985 18.8081 19.8234 18.7849 19.8416L18.5801 20.002C18.5453 20.0286 18.5083 20.0294 18.4693 20.0042C17.7707 19.5617 16.8926 19.5062 15.8346 19.8372L15.7871 19.8482L15.7385 19.8593C15.6947 19.8742 15.6514 19.8892 15.6084 19.9047L15.5914 19.9179C15.0264 20.1215 14.5145 20.4119 14.0552 20.7885C14.0213 20.8151 13.9639 20.8599 13.8833 20.9224C13.8154 20.9755 13.7583 21.0203 13.7125 21.0562C13.1596 21.6159 12.749 22.2476 12.4806 22.9511C12.2119 23.6547 12.1452 24.2835 12.2803 24.8372C12.2968 24.8801 12.2877 24.9152 12.2532 24.9423L12.0824 25.0761C12.0476 25.1027 12.0156 25.109 11.9862 25.0949C11.956 25.0817 11.9379 25.0595 11.9319 25.0286C11.8058 24.3936 11.8952 23.7011 12.2 22.9511C12.5046 22.2006 12.9664 21.5286 13.5858 20.9356L13.6027 20.9224C13.6367 20.8958 13.6842 20.8502 13.7453 20.7852L13.7781 20.7586C13.8474 20.705 13.8991 20.6646 13.9331 20.6381C14.4133 20.2628 14.9469 19.965 15.5337 19.7443C15.5569 19.7266 15.5815 19.7166 15.6073 19.7144C15.6336 19.7116 15.6582 19.7011 15.6808 19.6834C15.7125 19.6768 15.7442 19.6702 15.7758 19.6635Z" fill="black"/>
</g>
</g>
<mask id="mask3_371_12782" style="mask-type:luminance" maskUnits="userSpaceOnUse" x="7" y="0" width="25" height="27">
<path d="M7.31222 0.0615234H31.968V26.3356H7.31222V0.0615234Z" fill="white"/>
</mask>
<g mask="url(#mask3_371_12782)">
<mask id="mask4_371_12782" style="mask-type:luminance" maskUnits="userSpaceOnUse" x="7" y="0" width="25" height="27">
<path d="M32 0H7.31222V26.3363H32V0Z" fill="white"/>
</mask>
<g mask="url(#mask4_371_12782)">
<path d="M24.1405 12.4395C24.1102 12.4268 24.0862 12.4091 24.0681 12.3864C23.8953 12.0825 23.6513 11.8068 23.3362 11.559C23.0209 11.3112 22.6179 11.15 22.1269 11.0756C21.636 11.0009 21.0271 11.0922 20.3 11.3488C19.7361 11.5507 19.2197 11.8347 18.7514 12.2006C18.7056 12.2366 18.6527 12.2869 18.593 12.351C18.5132 12.4135 18.4561 12.4586 18.4222 12.486C17.8981 12.9675 17.5067 13.4965 17.248 14.0734C16.9895 14.6508 16.8755 15.2161 16.9063 15.7692C16.9366 16.3223 17.1252 16.8112 17.472 17.236C17.7918 17.6268 18.205 17.9033 18.7118 18.0656C19.2186 18.2285 19.7737 18.2664 20.3769 18.1796L26.5206 17.2803C27.2075 17.1821 27.8421 17.226 28.4244 17.4119C29.0073 17.5977 29.4813 17.9144 29.8464 18.3621C29.8554 18.3723 29.8634 18.3934 29.8701 18.4252C29.8679 18.4456 29.8549 18.465 29.8317 18.4827L29.5579 18.6973C29.5127 18.7327 29.472 18.7283 29.4358 18.684C28.7621 18.0186 27.8487 17.7706 26.6948 17.9395L20.5511 18.8411C19.8724 18.9487 19.2398 18.9066 18.653 18.715C18.0664 18.5231 17.5905 18.2042 17.2253 17.7581C16.8334 17.2772 16.6165 16.7189 16.5749 16.0833C16.5328 15.4484 16.6609 14.8038 16.9595 14.1497C17.2582 13.4954 17.7092 12.8964 18.3125 12.3522C18.3373 12.3137 18.3846 12.2675 18.4539 12.2139L18.4867 12.1884C18.5441 12.1434 18.5958 12.1027 18.6416 12.0668C19.1221 11.692 19.6558 11.3945 20.2423 11.1741C21.1134 10.8422 21.9459 10.7498 22.7401 10.8975C23.5347 11.0457 24.1648 11.4047 24.6303 11.9749C24.6665 12.0192 24.6614 12.0593 24.6156 12.0955L24.205 12.4163C24.1824 12.4346 24.1609 12.4423 24.1405 12.4395ZM16.2231 12.3367C15.1213 12.684 14.1289 12.6713 13.2457 12.2991C13.2157 12.2863 13.1976 12.2642 13.1914 12.2327C13.1832 12.2017 13.1908 12.1768 13.214 12.1586L13.4188 11.9982C13.4536 11.9716 13.4906 11.9708 13.5296 11.996C14.2282 12.4384 15.1063 12.494 16.1643 12.163L16.2118 12.1519L16.2604 12.1409C16.3043 12.1259 16.3475 12.111 16.3905 12.0955L16.4075 12.0822C16.9725 11.8787 17.4844 11.5883 17.9437 11.2117C17.9776 11.1851 18.035 11.1403 18.1156 11.0778C18.1835 11.0247 18.2406 10.9799 18.2864 10.944C18.8393 10.3842 19.25 9.7526 19.5183 9.04906C19.787 8.34552 19.8537 7.71664 19.7186 7.16299C19.7022 7.12013 19.7112 7.08501 19.7457 7.05791L19.9165 6.92406C19.9513 6.89751 19.9833 6.89115 20.0127 6.90525C20.0429 6.91853 20.061 6.94065 20.067 6.97162C20.1931 7.60658 20.1037 8.29906 19.7989 9.04906C19.4943 9.79961 19.0325 10.4716 18.4131 11.0645L18.3962 11.0778C18.3622 11.1044 18.3147 11.15 18.2536 11.215L18.2208 11.2415C18.1515 11.2952 18.0998 11.3356 18.0658 11.3621C17.5856 11.7374 17.052 12.0352 16.4652 12.2559C16.442 12.2736 16.4174 12.2836 16.3916 12.2858C16.3653 12.2885 16.3407 12.2991 16.3181 12.3168C16.2864 12.3234 16.2548 12.33 16.2231 12.3367Z" fill="black"/>
</g>
</g>
</g>
</svg>
