<svg width="48" height="48" viewBox="0 0 48 48" fill="none" xmlns="http://www.w3.org/2000/svg">
<mask id="mask0_371_12782" style="mask-type:luminance" maskUnits="userSpaceOnUse" x="0" y="0" width="48" height="48">
<path d="M48 0H0V48H48V0Z" fill="white"/>
</mask>
<g mask="url(#mask0_371_12782)">
<mask id="mask1_371_12782" style="mask-type:luminance" maskUnits="userSpaceOnUse" x="0" y="8" width="38" height="40">
<path d="M0.0479279 8.49536H37.0317V47.9064H0.0479279V8.49536Z" fill="white"/>
</mask>
<g mask="url(#mask1_371_12782)">
<mask id="mask2_371_12782" style="mask-type:luminance" maskUnits="userSpaceOnUse" x="0" y="8" width="38" height="40">
<path d="M37.0317 8.49536H1.14441e-05V47.9998H37.0317V8.49536Z" fill="white"/>
</mask>
<g mask="url(#mask2_371_12782)">
<path d="M11.7876 29.341C11.833 29.36 11.869 29.3866 11.8962 29.4206C12.1554 29.8765 12.5215 30.2901 12.994 30.6618C13.467 31.0334 14.0715 31.2753 14.808 31.3869C15.5444 31.4989 16.4577 31.362 17.5483 30.977C18.3942 30.6742 19.1688 30.2482 19.8713 29.6994C19.94 29.6454 20.0194 29.5699 20.1089 29.4737C20.2285 29.3799 20.3142 29.3123 20.3651 29.2713C21.1511 28.5491 21.7383 27.7555 22.1264 26.8902C22.5141 26.024 22.6851 25.1761 22.6388 24.3465C22.5935 23.5168 22.3105 22.7834 21.7904 22.1463C21.3106 21.5601 20.6909 21.1453 19.9307 20.9018C19.1705 20.6575 18.3378 20.6006 17.433 20.7309L8.21746 22.0799C7.18706 22.2272 6.23514 22.1612 5.36169 21.8824C4.4874 21.6037 3.77643 21.1287 3.22877 20.4571C3.2152 20.4418 3.20332 20.4102 3.19314 20.3625C3.19653 20.3318 3.21605 20.3028 3.25083 20.2762L3.66147 19.9543C3.72934 19.9012 3.79043 19.9079 3.84472 19.9743C4.85519 20.9723 6.22538 21.3444 7.95615 21.091L17.1716 19.7386C18.1897 19.5773 19.1387 19.6403 20.0189 19.9278C20.8987 20.2157 21.6127 20.694 22.1603 21.3631C22.7483 22.0845 23.0737 22.922 23.136 23.8752C23.1992 24.8277 23.0071 25.7946 22.5591 26.7757C22.1111 27.7572 21.4345 28.6557 20.5297 29.472C20.4924 29.5297 20.4215 29.599 20.3176 29.6795L20.2684 29.7176C20.1823 29.7852 20.1046 29.8462 20.0359 29.9001C19.3152 30.4622 18.5147 30.9086 17.6349 31.2392C16.3283 31.737 15.0795 31.8755 13.8883 31.654C12.6963 31.4317 11.7511 30.8932 11.0529 30.0379C10.9986 29.9715 11.0062 29.9113 11.0749 29.857L11.6909 29.3758C11.7248 29.3484 11.7571 29.3368 11.7876 29.341ZM23.6637 29.4953C25.3164 28.9743 26.805 28.9933 28.1298 29.5517C28.1748 29.5708 28.2019 29.604 28.2112 29.6512C28.2235 29.6977 28.2121 29.735 28.1773 29.7624L27.8702 30.003C27.818 30.0428 27.7624 30.0441 27.7039 30.0063C26.6561 29.3426 25.3389 29.2592 23.752 29.7558L23.6807 29.7724L23.6077 29.789C23.542 29.8114 23.4771 29.8338 23.4126 29.857L23.3871 29.8769C22.5396 30.1822 21.7718 30.6178 21.0828 31.1828C21.0319 31.2226 20.9458 31.2898 20.8249 31.3835C20.7231 31.4632 20.6374 31.5304 20.5687 31.5843C19.7394 32.4239 19.1234 33.3714 18.7209 34.4267C18.3179 35.482 18.2177 36.4253 18.4205 37.2558C18.4451 37.3201 18.4315 37.3728 18.3798 37.4134L18.1236 37.6142C18.0714 37.654 18.0235 37.6636 17.9793 37.6424C17.934 37.6225 17.9068 37.5893 17.8979 37.5428C17.7087 36.5904 17.8427 35.5517 18.3 34.4267C18.7569 33.3009 19.4496 32.2928 20.3787 31.4035L20.4041 31.3835C20.455 31.3437 20.5263 31.2753 20.6179 31.1778L20.6671 31.138C20.7711 31.0575 20.8487 30.9969 20.8996 30.9571C21.6199 30.3942 22.4204 29.9474 23.3006 29.6164C23.3354 29.5898 23.3723 29.5749 23.4109 29.5716C23.4504 29.5674 23.4873 29.5517 23.5212 29.5251C23.5687 29.5152 23.6162 29.5052 23.6637 29.4953Z" fill="black"/>
</g>
</g>
<mask id="mask3_371_12782" style="mask-type:luminance" maskUnits="userSpaceOnUse" x="10" y="0" width="38" height="40">
<path d="M10.9683 0.0922852H47.9521V39.5034H10.9683V0.0922852Z" fill="white"/>
</mask>
<g mask="url(#mask3_371_12782)">
<mask id="mask4_371_12782" style="mask-type:luminance" maskUnits="userSpaceOnUse" x="10" y="0" width="38" height="40">
<path d="M48 0H10.9683V39.5044H48V0Z" fill="white"/>
</mask>
<g mask="url(#mask4_371_12782)">
<path d="M36.2107 18.6593C36.1653 18.6402 36.1293 18.6137 36.1021 18.5797C35.843 18.1238 35.4769 17.7102 35.0043 17.3385C34.5313 16.9668 33.9268 16.725 33.1904 16.6134C32.454 16.5014 31.5406 16.6383 30.45 17.0233C29.6041 17.3261 28.8295 17.7521 28.127 18.3009C28.0583 18.3548 27.979 18.4303 27.8895 18.5266C27.7698 18.6203 27.6842 18.6879 27.6332 18.729C26.8472 19.4512 26.2601 20.2448 25.8719 21.1101C25.4842 21.9762 25.3133 22.8241 25.3595 23.6538C25.4049 24.4834 25.6878 25.2168 26.2079 25.854C26.6877 26.4401 27.3075 26.855 28.0676 27.0985C28.8278 27.3428 29.6605 27.3996 30.5654 27.2694L39.7809 25.9204C40.8113 25.7731 41.7632 25.8391 42.6366 26.1178C43.5109 26.3966 44.2219 26.8716 44.7696 27.5432C44.7831 27.5585 44.795 27.59 44.8052 27.6377C44.8018 27.6684 44.7823 27.6975 44.7475 27.724L44.3369 28.0459C44.269 28.099 44.2079 28.0924 44.1536 28.026C43.1431 27.028 41.773 26.6559 40.0422 26.9093L30.8267 28.2616C29.8086 28.423 28.8596 28.36 27.9794 28.0725C27.0996 27.7846 26.3857 27.3063 25.838 26.6372C25.25 25.9158 24.9247 25.0783 24.8623 24.125C24.7991 23.1726 24.9913 22.2056 25.4392 21.2246C25.8872 20.2431 26.5638 19.3446 27.4687 18.5282C27.506 18.4706 27.5768 18.4013 27.6808 18.3208L27.73 18.2827C27.8161 18.215 27.8937 18.1541 27.9624 18.1001C28.6832 17.538 29.4836 17.0917 30.3635 16.7611C31.67 16.2633 32.9189 16.1247 34.1101 16.3463C35.3021 16.5686 36.2472 17.107 36.9455 17.9624C36.9998 18.0288 36.9921 18.0889 36.9234 18.1433L36.3075 18.6245C36.2735 18.6518 36.2413 18.6635 36.2107 18.6593ZM24.3346 18.505C22.6819 19.026 21.1933 19.0069 19.8685 18.4486C19.8236 18.4295 19.7964 18.3963 19.7871 18.349C19.7748 18.3026 19.7862 18.2652 19.821 18.2379L20.1282 17.9973C20.1803 17.9574 20.2359 17.9562 20.2944 17.9939C21.3422 18.6577 22.6594 18.741 24.2464 18.2445L24.3176 18.2279L24.3906 18.2113C24.4564 18.1889 24.5213 18.1665 24.5857 18.1433L24.6112 18.1234C25.4588 17.8181 26.2266 17.3825 26.9155 16.8175C26.9664 16.7777 27.0525 16.7105 27.1734 16.6167C27.2752 16.5371 27.3609 16.4699 27.4296 16.416C28.259 15.5763 28.8749 14.6289 29.2775 13.5736C29.6805 12.5183 29.7806 11.575 29.5778 10.7445C29.5532 10.6802 29.5668 10.6275 29.6185 10.5869L29.8748 10.3861C29.9269 10.3463 29.9749 10.3367 30.019 10.3579C30.0644 10.3778 30.0915 10.411 30.1004 10.4574C30.2896 11.4099 30.1556 12.4486 29.6983 13.5736C29.2414 14.6994 28.5487 15.7074 27.6197 16.5968L27.5942 16.6167C27.5433 16.6565 27.4721 16.725 27.3804 16.8225L27.3312 16.8623C27.2273 16.9428 27.1497 17.0033 27.0987 17.0432C26.3784 17.6061 25.578 18.0528 24.6977 18.3839C24.6629 18.4104 24.626 18.4254 24.5874 18.4287C24.548 18.4328 24.5111 18.4486 24.4771 18.4751C24.4296 18.4851 24.3821 18.495 24.3346 18.505Z" fill="black"/>
</g>
</g>
</g>
</svg>
