<svg width="16" height="16" viewBox="0 0 16 16" fill="none" xmlns="http://www.w3.org/2000/svg">
<mask id="mask0_371_12782" style="mask-type:luminance" maskUnits="userSpaceOnUse" x="0" y="0" width="16" height="16">
<path d="M16 0H0V16H16V0Z" fill="white"/>
</mask>
<g mask="url(#mask0_371_12782)">
<mask id="mask1_371_12782" style="mask-type:luminance" maskUnits="userSpaceOnUse" x="0" y="2" width="13" height="14">
<path d="M0.0159702 2.83179H12.3439V15.9688H0.0159702V2.83179Z" fill="white"/>
</mask>
<g mask="url(#mask1_371_12782)">
<mask id="mask2_371_12782" style="mask-type:luminance" maskUnits="userSpaceOnUse" x="0" y="2" width="13" height="14">
<path d="M12.3439 2.83179H1.14441e-05V15.9999H12.3439V2.83179Z" fill="white"/>
</mask>
<g mask="url(#mask2_371_12782)">
<path d="M3.92921 9.78032C3.94434 9.78668 3.95636 9.79553 3.96541 9.80687C4.05181 9.95883 4.17384 10.0967 4.33136 10.2206C4.48902 10.3445 4.69052 10.4251 4.936 10.4623C5.18147 10.4996 5.48591 10.454 5.84946 10.3257C6.13142 10.2247 6.38962 10.0827 6.62378 9.89979C6.64669 9.88181 6.67313 9.85665 6.70297 9.82457C6.74284 9.79332 6.7714 9.77078 6.78837 9.75709C7.05039 9.51635 7.24609 9.25183 7.37548 8.96339C7.50472 8.67468 7.5617 8.39204 7.54629 8.1155C7.53116 7.83895 7.43685 7.59448 7.26349 7.38209C7.10356 7.18671 6.89697 7.04843 6.64358 6.96727C6.39018 6.88582 6.11261 6.86688 5.811 6.9103L2.73916 7.35996C2.3957 7.40905 2.07839 7.38707 1.78724 7.29415C1.49581 7.20123 1.25882 7.0429 1.07627 6.81904C1.07174 6.81392 1.06778 6.80341 1.06439 6.78751C1.06552 6.77728 1.07203 6.7676 1.08362 6.75875L1.2205 6.65145C1.24312 6.63375 1.26349 6.63596 1.28158 6.65808C1.61841 6.99077 2.07514 7.1148 2.65206 7.03032L5.72389 6.57954C6.06326 6.52576 6.37958 6.54677 6.67299 6.6426C6.96626 6.73856 7.20424 6.89799 7.38679 7.12103C7.58277 7.36149 7.69123 7.64066 7.71201 7.95842C7.73308 8.27589 7.66903 8.59821 7.51971 8.92523C7.37039 9.25239 7.14485 9.55189 6.84324 9.82401C6.83079 9.84323 6.80718 9.86633 6.77254 9.89315L6.75613 9.90587C6.72743 9.92841 6.70155 9.94874 6.67864 9.96671C6.4384 10.1541 6.17157 10.3029 5.8783 10.4131C5.44278 10.579 5.02649 10.6252 4.62944 10.5513C4.23209 10.4772 3.91705 10.2977 3.6843 10.0126C3.6662 9.9905 3.66875 9.97045 3.69165 9.95233L3.89697 9.79193C3.90828 9.78281 3.91903 9.77894 3.92921 9.78032ZM7.88792 9.83176C8.43882 9.65808 8.93501 9.66444 9.37661 9.85056C9.3916 9.85692 9.40065 9.86798 9.40376 9.88375C9.40786 9.89923 9.40404 9.91168 9.39244 9.92081L9.29007 10.001C9.27268 10.0143 9.25415 10.0147 9.23464 10.0021C8.88537 9.78087 8.44632 9.75308 7.91733 9.91859L7.89358 9.92412L7.86925 9.92965C7.84734 9.93712 7.8257 9.94459 7.80421 9.95233L7.79573 9.95897C7.5132 10.0607 7.25726 10.2059 7.02763 10.3943C7.01066 10.4075 6.98195 10.4299 6.94165 10.4612C6.90772 10.4877 6.87915 10.5101 6.85625 10.5281C6.5798 10.808 6.37449 11.1238 6.2403 11.4756C6.10596 11.8273 6.07259 12.1418 6.14018 12.4186C6.14838 12.44 6.14386 12.4576 6.12661 12.4711L6.0412 12.5381C6.02381 12.5513 6.00783 12.5545 5.99312 12.5475C5.97799 12.5408 5.96894 12.5298 5.96597 12.5143C5.90291 12.1968 5.94759 11.8506 6.10002 11.4756C6.25231 11.1003 6.48323 10.7643 6.7929 10.4678L6.80138 10.4612C6.81835 10.4479 6.84211 10.4251 6.87265 10.3926L6.88905 10.3793C6.92369 10.3525 6.94957 10.3323 6.96654 10.319C7.20664 10.1314 7.47347 9.98248 7.76688 9.87213C7.77847 9.86328 7.79078 9.85831 7.80364 9.8572C7.81679 9.85582 7.8291 9.85056 7.84041 9.84171C7.85625 9.83839 7.87208 9.83508 7.88792 9.83176Z" fill="white"/>
</g>
</g>
<mask id="mask3_371_12782" style="mask-type:luminance" maskUnits="userSpaceOnUse" x="3" y="0" width="13" height="14">
<path d="M3.65611 0.0307617H15.984V13.1678H3.65611V0.0307617Z" fill="white"/>
</mask>
<g mask="url(#mask3_371_12782)">
<mask id="mask4_371_12782" style="mask-type:luminance" maskUnits="userSpaceOnUse" x="3" y="0" width="13" height="14">
<path d="M16 0H3.65611V13.1681H16V0Z" fill="white"/>
</mask>
<g mask="url(#mask4_371_12782)">
<path d="M12.0703 6.21977C12.0551 6.21341 12.0431 6.20456 12.0341 6.19322C11.9477 6.04126 11.8256 5.9034 11.6681 5.77951C11.5105 5.65561 11.309 5.575 11.0635 5.5378C10.818 5.50047 10.5136 5.5461 10.15 5.67442C9.86807 5.77536 9.60987 5.91737 9.37571 6.1003C9.3528 6.11828 9.32636 6.14344 9.29652 6.17552C9.25664 6.20677 9.22808 6.22931 9.21111 6.243C8.94909 6.48374 8.75339 6.74826 8.62401 7.0367C8.49477 7.32541 8.43778 7.60805 8.45319 7.88459C8.46832 8.16114 8.56264 8.40561 8.736 8.618C8.89593 8.81338 9.10252 8.95166 9.35591 9.03282C9.6093 9.11427 9.88688 9.13321 10.1885 9.08979L13.2603 8.64013C13.6038 8.59104 13.9211 8.61302 14.2122 8.70594C14.5037 8.79886 14.7407 8.95719 14.9232 9.18105C14.9277 9.18617 14.9317 9.19668 14.9351 9.21258C14.934 9.22281 14.9275 9.23249 14.9159 9.24134L14.779 9.34864C14.7564 9.36634 14.736 9.36413 14.7179 9.34201C14.3811 9.00932 13.9243 8.88529 13.3474 8.96977L10.2756 9.42055C9.93623 9.47433 9.61991 9.45332 9.3265 9.35749C9.03323 9.26153 8.79525 9.1021 8.6127 8.87906C8.41671 8.6386 8.30826 8.35943 8.28747 8.04167C8.2664 7.7242 8.33046 7.40188 8.47978 7.07486C8.6291 6.7477 8.85464 6.4482 9.15625 6.17608C9.16869 6.15686 9.19231 6.13376 9.22695 6.10694L9.24335 6.09422C9.27206 6.07168 9.29793 6.05135 9.32084 6.03338C9.56109 5.84602 9.82791 5.69723 10.1212 5.58703C10.5567 5.4211 10.973 5.37492 11.3701 5.44875C11.7674 5.52287 12.0824 5.70235 12.3152 5.98747C12.3333 6.00959 12.3307 6.02964 12.3078 6.04776L12.1025 6.20816C12.0912 6.21728 12.0805 6.22115 12.0703 6.21977ZM8.11157 6.16833C7.56066 6.34201 7.06448 6.33565 6.62288 6.14953C6.60789 6.14317 6.59884 6.13211 6.59573 6.11634C6.59163 6.10086 6.59545 6.08841 6.60704 6.07928L6.70942 5.99909C6.72681 5.98581 6.74533 5.9854 6.76485 5.99798C7.11411 6.21922 7.55317 6.24701 8.08215 6.0815L8.10591 6.07597L8.13023 6.07044C8.15215 6.06297 8.17378 6.0555 8.19528 6.04776L8.20376 6.04112C8.48628 5.93935 8.74222 5.79416 8.97186 5.60583C8.98883 5.59256 9.01753 5.57016 9.05783 5.53891C9.09177 5.51236 9.12033 5.48996 9.14324 5.47198C9.41968 5.19212 9.625 4.8763 9.75919 4.52453C9.89352 4.17276 9.92689 3.85832 9.8593 3.5815C9.8511 3.56006 9.85563 3.5425 9.87288 3.52895L9.95829 3.46203C9.97568 3.44875 9.99166 3.44557 10.0064 3.45263C10.0215 3.45926 10.0305 3.47032 10.0335 3.48581C10.0966 3.80329 10.0519 4.14953 9.89946 4.52453C9.74717 4.8998 9.51626 5.23581 9.20659 5.53227L9.1981 5.53891C9.18114 5.55218 9.15738 5.575 9.12684 5.60749L9.11043 5.62077C9.07579 5.64759 9.04991 5.66778 9.03295 5.68105C8.79284 5.86869 8.52602 6.01761 8.23261 6.12796C8.22101 6.13681 8.20871 6.14178 8.19584 6.14289C8.18269 6.14427 8.17039 6.14953 8.15908 6.15838C8.14324 6.1617 8.1274 6.16501 8.11157 6.16833Z" fill="white"/>
</g>
</g>
</g>
</svg>
