<svg width="20" height="20" viewBox="0 0 20 20" fill="none" xmlns="http://www.w3.org/2000/svg">
<g clip-path="url(#clip0_850_44257)">
<path d="M18.7924 10.2041C18.7924 9.55432 18.7341 8.92958 18.6258 8.32983H9.99609V11.8784H14.9274C14.7108 13.0195 14.0611 13.9858 13.0865 14.6355V16.9429H16.0602C17.7928 15.3436 18.7924 12.9946 18.7924 10.2041Z" fill="black"/>
<path d="M9.99633 19.1587C12.4703 19.1587 14.5444 18.3424 16.0605 16.943L13.0867 14.6356C12.2704 15.1854 11.2292 15.5185 9.99633 15.5185C7.61399 15.5185 5.58983 13.9109 4.86514 11.7451H1.81641V14.1108C3.32411 17.1012 6.41449 19.1587 9.99633 19.1587Z" fill="black"/>
<path d="M4.86369 11.7367C4.68043 11.187 4.57214 10.6039 4.57214 9.99578C4.57214 9.3877 4.68043 8.80461 4.86369 8.25484V5.88916H1.81496C1.19022 7.12198 0.832031 8.51307 0.832031 9.99578C0.832031 11.4785 1.19022 12.8696 1.81496 14.1024L4.18897 12.2532L4.86369 11.7367Z" fill="black"/>
<path d="M9.99633 4.48149C11.3458 4.48149 12.5453 4.94796 13.5032 5.84759L16.1271 3.22368C14.5361 1.74096 12.4703 0.833008 9.99633 0.833008C6.41449 0.833008 3.32411 2.89048 1.81641 5.88924L4.86514 8.25492C5.58983 6.08915 7.61399 4.48149 9.99633 4.48149Z" fill="black"/>
</g>
<defs>
<clipPath id="clip0_850_44257">
<rect width="19.9917" height="19.9917" fill="white"/>
</clipPath>
</defs>
</svg>
