<svg width="20" height="20" viewBox="0 0 20 20" fill="none" xmlns="http://www.w3.org/2000/svg">
<g clip-path="url(#clip0_387_19018)">
<path d="M18.7924 10.2043C18.7924 9.55457 18.7341 8.92983 18.6258 8.33008H9.99609V11.8786H14.9274C14.7108 13.0198 14.0611 13.9861 13.0865 14.6358V16.9432H16.0602C17.7928 15.3438 18.7924 12.9948 18.7924 10.2043Z" fill="#331100"/>
<path d="M9.99536 19.1587C12.4693 19.1587 14.5435 18.3424 16.0595 16.943L13.0857 14.6356C12.2694 15.1854 11.2282 15.5185 9.99536 15.5185C7.61301 15.5185 5.58886 13.9109 4.86416 11.7451H1.81543V14.1108C3.32313 17.1012 6.41351 19.1587 9.99536 19.1587Z" fill="#331100"/>
<path d="M4.86466 11.7367C4.6814 11.187 4.57312 10.6039 4.57312 9.99578C4.57312 9.3877 4.6814 8.80461 4.86466 8.25484V5.88916H1.81593C1.19119 7.12198 0.833008 8.51307 0.833008 9.99578C0.833008 11.4785 1.19119 12.8696 1.81593 14.1024L4.18994 12.2532L4.86466 11.7367Z" fill="#331100"/>
<path d="M9.99536 4.48149C11.3448 4.48149 12.5443 4.94796 13.5022 5.84759L16.1261 3.22368C14.5351 1.74096 12.4693 0.833008 9.99536 0.833008C6.41351 0.833008 3.32313 2.89048 1.81543 5.88924L4.86416 8.25492C5.58886 6.08915 7.61301 4.48149 9.99536 4.48149Z" fill="#331100"/>
</g>
<defs>
<clipPath id="clip0_387_19018">
<rect width="19.9917" height="19.9917" fill="white"/>
</clipPath>
</defs>
</svg>
