<svg width="149" height="85" viewBox="0 0 149 85" fill="none" xmlns="http://www.w3.org/2000/svg">
<mask id="mask0_839_26262" style="mask-type:luminance" maskUnits="userSpaceOnUse" x="0" y="19" width="149" height="67">
<path d="M148.352 19.6671H0V85.0004H148.352V19.6671Z" fill="white"/>
</mask>
<g mask="url(#mask0_839_26262)">
<mask id="mask1_839_26262" style="mask-type:luminance" maskUnits="userSpaceOnUse" x="117" y="19" width="32" height="66">
<path d="M117.977 19.8491H148.272V84.9662H117.977V19.8491Z" fill="white"/>
</mask>
<g mask="url(#mask1_839_26262)">
<mask id="mask2_839_26262" style="mask-type:luminance" maskUnits="userSpaceOnUse" x="117" y="19" width="32" height="67">
<path d="M148.354 19.6689H117.977V85.0023H148.354V19.6689Z" fill="white"/>
</mask>
<g mask="url(#mask2_839_26262)">
<path d="M122.881 64.8679C122.804 64.8679 122.748 64.8492 122.712 64.8126C122.674 64.7752 122.656 64.7191 122.656 64.6435V25.5073C122.656 25.3187 122.731 25.2244 122.881 25.2244H146.756C146.906 25.2244 146.981 25.3187 146.981 25.5073V26.8012C146.981 26.8776 146.943 26.9532 146.87 27.0288C146.831 27.0288 146.793 27.0288 146.756 27.0288C146.719 27.0288 146.682 27.0288 146.643 27.0288C145.817 26.6151 144.897 26.3233 143.882 26.1542C142.87 25.9852 141.613 25.873 140.111 25.8161C138.609 25.76 136.714 25.7316 134.425 25.7316H124.233V44.8218H138.534C138.684 44.8218 138.759 44.8966 138.759 45.0461C138.759 45.2347 138.684 45.329 138.534 45.329H124.233V64.4192H134.425C136.714 64.4192 138.609 64.3916 140.111 64.3347C141.613 64.2786 142.87 64.1575 143.882 63.9706C144.897 63.782 145.817 63.4992 146.643 63.122C146.718 63.0855 146.794 63.0855 146.87 63.122C146.943 63.1611 146.981 63.2375 146.981 63.3496V64.6435C146.981 64.7931 146.906 64.8679 146.756 64.8679H124.005C124.005 64.8679 123.818 64.8679 123.443 64.8679C123.068 64.8679 122.881 64.8679 122.881 64.8679Z" fill="white"/>
</g>
</g>
<mask id="mask3_839_26262" style="mask-type:luminance" maskUnits="userSpaceOnUse" x="82" y="19" width="41" height="66">
<path d="M82.6055 19.8491H122.138V84.9662H82.6055V19.8491Z" fill="white"/>
</mask>
<g mask="url(#mask3_839_26262)">
<mask id="mask4_839_26262" style="mask-type:luminance" maskUnits="userSpaceOnUse" x="82" y="19" width="41" height="67">
<path d="M122.138 19.6689H82.6055V85.0023H122.138V19.6689Z" fill="white"/>
</mask>
<g mask="url(#mask4_839_26262)">
<path d="M87.4704 64.8679C87.394 64.8679 87.3379 64.8492 87.3014 64.8126C87.264 64.7752 87.2461 64.7191 87.2461 64.6435V25.5073C87.2461 25.3187 87.3209 25.2244 87.4704 25.2244H99.6912C102.43 25.3008 104.982 25.8641 107.347 26.915C109.712 27.9667 111.795 29.3939 113.596 31.1966C115.399 32.9977 116.798 35.0808 117.793 37.4452C118.788 39.8103 119.285 42.3437 119.285 45.0461C119.285 47.7884 118.788 50.3413 117.793 52.7056C116.798 55.0708 115.399 57.1547 113.596 58.9574C111.795 60.7585 109.712 62.176 107.347 63.2098C104.982 64.242 102.43 64.7939 99.6912 64.8679H88.5953C88.5953 64.8679 88.4075 64.8679 88.0329 64.8679C87.6574 64.8679 87.4704 64.8679 87.4704 64.8679ZM99.1255 25.7316H88.8229V64.4192H99.6326C102.149 64.3436 104.495 63.7901 106.671 62.7579C108.849 61.7241 110.746 60.3253 112.361 58.5608C113.975 56.7971 115.242 54.7701 116.161 52.4813C117.079 50.1909 117.539 47.712 117.539 45.0461C117.539 42.4193 117.079 39.9517 116.161 37.6435C115.242 35.3336 113.975 33.296 112.361 31.5315C110.746 29.7678 108.849 28.3796 106.671 27.3669C104.495 26.3525 102.149 25.808 99.6326 25.7316H99.1255Z" fill="white"/>
</g>
</g>
<mask id="mask5_839_26262" style="mask-type:luminance" maskUnits="userSpaceOnUse" x="54" y="19" width="31" height="66">
<path d="M54.3086 19.8491H84.8946V84.9662H54.3086V19.8491Z" fill="white"/>
</mask>
<g mask="url(#mask5_839_26262)">
<mask id="mask6_839_26262" style="mask-type:luminance" maskUnits="userSpaceOnUse" x="54" y="19" width="31" height="67">
<path d="M84.8946 19.6689H54.3086V85.0023H84.8946V19.6689Z" fill="white"/>
</mask>
<g mask="url(#mask6_839_26262)">
<path d="M59.3454 64.8679C59.269 64.8679 59.2129 64.8492 59.1764 64.8126C59.139 64.7752 59.1211 64.7191 59.1211 64.6435V25.5073C59.1211 25.3187 59.1959 25.2244 59.3454 25.2244H83.2212C83.3708 25.2244 83.4455 25.3187 83.4455 25.5073V26.8012C83.4455 26.8776 83.4081 26.9532 83.335 27.0288C83.296 27.0288 83.2578 27.0288 83.2212 27.0288C83.1838 27.0288 83.1464 27.0288 83.1074 27.0288C82.2816 26.6151 81.3616 26.3233 80.3473 26.1542C79.3346 25.9852 78.078 25.873 76.576 25.8161C75.074 25.76 73.1787 25.7316 70.8899 25.7316H60.6979V44.8218H74.9993C75.1488 44.8218 75.2236 44.8966 75.2236 45.0461C75.2236 45.2347 75.1488 45.329 74.9993 45.329H60.6979V64.4192H70.8899C73.1787 64.4192 75.074 64.3916 76.576 64.3347C78.078 64.2786 79.3346 64.1575 80.3473 63.9706C81.3616 63.782 82.2816 63.4992 83.1074 63.122C83.183 63.0855 83.2586 63.0855 83.335 63.122C83.4081 63.1611 83.4455 63.2375 83.4455 63.3496V64.6435C83.4455 64.7931 83.3708 64.8679 83.2212 64.8679H60.4703C60.4703 64.8679 60.2825 64.8679 59.9079 64.8679C59.5324 64.8679 59.3454 64.8679 59.3454 64.8679Z" fill="white"/>
</g>
</g>
<mask id="mask7_839_26262" style="mask-type:luminance" maskUnits="userSpaceOnUse" x="26" y="19" width="34" height="66">
<path d="M26.8438 19.8491H59.7185V84.9662H26.8438V19.8491Z" fill="white"/>
</mask>
<g mask="url(#mask7_839_26262)">
<mask id="mask8_839_26262" style="mask-type:luminance" maskUnits="userSpaceOnUse" x="26" y="19" width="34" height="67">
<path d="M59.7185 19.6689H26.8438V85.0023H59.7185V19.6689Z" fill="white"/>
</mask>
<g mask="url(#mask8_839_26262)">
<path d="M55.104 25.2253C55.2552 25.2253 55.3316 25.3196 55.3316 25.5081V52.7065C55.3316 52.9324 55.3316 53.1381 55.3316 53.3242C55.2926 53.5128 55.2731 53.72 55.2731 53.9452C55.2357 54.1337 55.1991 54.3215 55.1625 54.5076C54.861 56.4972 54.1466 58.2715 53.0201 59.8296C51.8952 61.3885 50.4688 62.6182 48.7417 63.5195C47.0138 64.4193 45.1558 64.8687 43.1661 64.8687C40.914 64.8687 38.8682 64.325 37.0281 63.2367C35.1896 62.1492 33.7259 60.6846 32.6359 58.8445C31.5476 57.0044 31.0039 54.9587 31.0039 52.7065V25.5081C31.0039 25.3196 31.0787 25.2253 31.2282 25.2253H32.3563C32.5059 25.2253 32.5807 25.3196 32.5807 25.5081V52.7065C32.5807 54.7725 33.0781 56.6492 34.0729 58.3373C35.0677 60.0263 36.4088 61.3689 38.0977 62.3654C39.7883 63.3602 41.6658 63.8576 43.7318 63.8576C45.5329 63.8576 47.221 63.4447 48.797 62.619C50.3745 61.7916 51.679 60.674 52.7112 59.2671C53.7451 57.8586 54.4115 56.2355 54.7106 54.397C54.7497 54.2459 54.7692 54.0947 54.7692 53.9452C54.7692 53.9086 54.7692 53.8899 54.7692 53.8899C54.8057 53.7013 54.8244 53.5128 54.8244 53.3242C54.8244 53.1015 54.8244 52.8951 54.8244 52.7065V25.5081C54.8244 25.3196 54.9171 25.2253 55.104 25.2253Z" fill="white"/>
</g>
</g>
<mask id="mask9_839_26262" style="mask-type:luminance" maskUnits="userSpaceOnUse" x="0" y="19" width="30" height="66">
<path d="M0.160156 19.8491H29.3392V84.9662H0.160156V19.8491Z" fill="white"/>
</mask>
<g mask="url(#mask9_839_26262)">
<mask id="mask10_839_26262" style="mask-type:luminance" maskUnits="userSpaceOnUse" x="0" y="19" width="30" height="67">
<path d="M29.3376 19.6689H0V85.0023H29.3376V19.6689Z" fill="white"/>
</mask>
<g mask="url(#mask10_839_26262)">
<path d="M4.40207 46.7916C4.43864 46.868 4.45734 46.9436 4.45734 47.0192C4.30779 47.9189 4.34518 48.8755 4.57112 49.8898C4.79626 50.9042 5.34 51.8811 6.20316 52.819C7.0655 53.7578 8.43501 54.5454 10.3125 55.1826C11.7771 55.6702 13.2791 55.9141 14.8185 55.9141C14.968 55.9141 15.155 55.8962 15.3809 55.8588C15.645 55.8588 15.8336 55.8588 15.9466 55.8588C17.7842 55.7092 19.435 55.25 20.8979 54.4803C22.3626 53.709 23.5183 52.7329 24.3636 51.5511C25.2089 50.3677 25.6315 49.0633 25.6315 47.6369C25.6315 46.3234 25.2552 45.0945 24.5034 43.9502C23.7532 42.8042 22.7023 41.837 21.3498 41.0502L7.5556 33.0526C6.01622 32.1512 4.81495 31.0434 3.95017 29.73C3.08702 28.4166 2.65625 27.0089 2.65625 25.5069C2.65625 25.4703 2.67413 25.4142 2.71152 25.3378C2.74809 25.3013 2.80417 25.2826 2.88057 25.2826H3.78112C3.93229 25.2826 4.00869 25.3573 4.00869 25.5069C4.2704 27.9476 5.6968 29.9186 8.28709 31.4206L22.0846 39.4149C23.6232 40.2797 24.8236 41.3786 25.6868 42.7115C26.5491 44.0428 26.9807 45.4586 26.9807 46.9606C26.9807 48.5756 26.5012 50.0678 25.5437 51.4373C24.5879 52.8077 23.2745 53.9244 21.6034 54.7892C19.934 55.6523 18.0484 56.1579 15.9466 56.3074C15.8336 56.3464 15.6646 56.3659 15.4394 56.3659H15.3256C15.1371 56.3659 14.968 56.3659 14.8185 56.3659C13.2425 56.3659 11.6844 56.1221 10.1434 55.6345C7.8547 54.9217 6.0341 53.7773 4.68166 52.2013C3.33084 50.6238 2.65625 48.8771 2.65625 46.9606C2.65625 46.8111 2.73102 46.7363 2.88057 46.7363H4.23301C4.30616 46.7363 4.36306 46.755 4.40207 46.7916ZM20.1112 59.6885C22.8892 60.7403 24.861 62.3536 26.0249 64.5294C26.0614 64.6058 26.0614 64.6805 26.0249 64.7569C25.9875 64.8301 25.9314 64.8675 25.8558 64.8675H25.1796C25.0666 64.8675 24.9918 64.8106 24.9553 64.6984C24.2791 62.6722 22.608 61.1515 19.9421 60.1372L19.8316 60.0819L19.7178 60.0266C19.6048 59.9876 19.4919 59.9502 19.3797 59.9129H19.3244C17.859 59.4252 16.357 59.2001 14.8185 59.2366C14.7055 59.2366 14.5177 59.2366 14.256 59.2366C14.0301 59.2366 13.8431 59.2366 13.6936 59.2366C11.6649 59.4992 9.80533 60.1372 8.11478 61.1515C6.42585 62.1658 5.2636 63.3484 4.62639 64.6984C4.58901 64.8106 4.51423 64.8675 4.40207 64.8675H3.83964C3.72666 64.8675 3.65107 64.8301 3.61206 64.7569C3.57467 64.6805 3.57467 64.6058 3.61206 64.5294C4.40044 63.0298 5.71387 61.7546 7.55235 60.7029C9.39245 59.652 11.4195 59.0139 13.6351 58.788H13.6936C13.8058 58.788 13.9748 58.7685 14.2008 58.7295H14.3113C14.5364 58.7295 14.7055 58.7295 14.8185 58.7295C16.396 58.7295 17.9541 58.9733 19.4935 59.461C19.5666 59.461 19.6317 59.4805 19.6886 59.5195C19.7446 59.5569 19.8105 59.5747 19.8869 59.5747C19.9625 59.6121 20.0372 59.6495 20.1112 59.6885Z" fill="white"/>
</g>
</g>
</g>
</svg>
