<svg width="149" height="66" viewBox="0 0 149 66" fill="none" xmlns="http://www.w3.org/2000/svg">
<mask id="mask0_839_26803" style="mask-type:luminance" maskUnits="userSpaceOnUse" x="0" y="0" width="149" height="66">
<path d="M148.352 0.000366211H0V65.3337H148.352V0.000366211Z" fill="white"/>
</mask>
<g mask="url(#mask0_839_26803)">
<mask id="mask1_839_26803" style="mask-type:luminance" maskUnits="userSpaceOnUse" x="117" y="0" width="32" height="66">
<path d="M117.977 0.182373H148.272V65.2995H117.977V0.182373Z" fill="white"/>
</mask>
<g mask="url(#mask1_839_26803)">
<mask id="mask2_839_26803" style="mask-type:luminance" maskUnits="userSpaceOnUse" x="117" y="0" width="32" height="66">
<path d="M148.354 0.0022583H117.977V65.3356H148.354V0.0022583Z" fill="white"/>
</mask>
<g mask="url(#mask2_839_26803)">
<path d="M122.881 45.2012C122.804 45.2012 122.748 45.1825 122.712 45.1459C122.674 45.1085 122.656 45.0524 122.656 44.9768V5.84058C122.656 5.65202 122.731 5.55774 122.881 5.55774H146.756C146.906 5.55774 146.981 5.65202 146.981 5.84058V7.1345C146.981 7.2109 146.943 7.28649 146.87 7.36208C146.831 7.36208 146.793 7.36208 146.756 7.36208C146.719 7.36208 146.682 7.36208 146.643 7.36208C145.817 6.94838 144.897 6.6566 143.882 6.48754C142.87 6.31849 141.613 6.20633 140.111 6.14943C138.609 6.09335 136.714 6.0649 134.425 6.0649H124.233V25.1551H138.534C138.684 25.1551 138.759 25.2299 138.759 25.3795C138.759 25.568 138.684 25.6623 138.534 25.6623H124.233V44.7525H134.425C136.714 44.7525 138.609 44.7249 140.111 44.668C141.613 44.6119 142.87 44.4908 143.882 44.3039C144.897 44.1153 145.817 43.8325 146.643 43.4554C146.718 43.4188 146.794 43.4188 146.87 43.4554C146.943 43.4944 146.981 43.5708 146.981 43.6829V44.9768C146.981 45.1264 146.906 45.2012 146.756 45.2012H124.005C124.005 45.2012 123.818 45.2012 123.443 45.2012C123.068 45.2012 122.881 45.2012 122.881 45.2012Z" fill="black"/>
</g>
</g>
<mask id="mask3_839_26803" style="mask-type:luminance" maskUnits="userSpaceOnUse" x="82" y="0" width="41" height="66">
<path d="M82.6055 0.182373H122.138V65.2995H82.6055V0.182373Z" fill="white"/>
</mask>
<g mask="url(#mask3_839_26803)">
<mask id="mask4_839_26803" style="mask-type:luminance" maskUnits="userSpaceOnUse" x="82" y="0" width="41" height="66">
<path d="M122.138 0.0022583H82.6055V65.3356H122.138V0.0022583Z" fill="white"/>
</mask>
<g mask="url(#mask4_839_26803)">
<path d="M87.4704 45.2012C87.394 45.2012 87.3379 45.1825 87.3014 45.1459C87.264 45.1085 87.2461 45.0524 87.2461 44.9768V5.84058C87.2461 5.65202 87.3209 5.55774 87.4704 5.55774H99.6912C102.43 5.63414 104.982 6.19739 107.347 7.24829C109.712 8.30001 111.795 9.72722 113.596 11.5299C115.399 13.331 116.798 15.4141 117.793 17.7785C118.788 20.1436 119.285 22.677 119.285 25.3795C119.285 28.1217 118.788 30.6746 117.793 33.039C116.798 35.4041 115.399 37.488 113.596 39.2907C111.795 41.0918 109.712 42.5093 107.347 43.5431C104.982 44.5753 102.43 45.1272 99.6912 45.2012H88.5953C88.5953 45.2012 88.4075 45.2012 88.0329 45.2012C87.6574 45.2012 87.4704 45.2012 87.4704 45.2012ZM99.1255 6.0649H88.8229V44.7525H99.6326C102.149 44.6769 104.495 44.1234 106.671 43.0912C108.849 42.0574 110.746 40.6586 112.361 38.8941C113.975 37.1304 115.242 35.1034 116.161 32.8146C117.079 30.5243 117.539 28.0453 117.539 25.3795C117.539 22.7526 117.079 20.285 116.161 17.9768C115.242 15.6669 113.975 13.6293 112.361 11.8648C110.746 10.1011 108.849 8.71289 106.671 7.70019C104.495 6.68586 102.149 6.1413 99.6326 6.0649H99.1255Z" fill="black"/>
</g>
</g>
<mask id="mask5_839_26803" style="mask-type:luminance" maskUnits="userSpaceOnUse" x="54" y="0" width="31" height="66">
<path d="M54.3086 0.182373H84.8946V65.2995H54.3086V0.182373Z" fill="white"/>
</mask>
<g mask="url(#mask5_839_26803)">
<mask id="mask6_839_26803" style="mask-type:luminance" maskUnits="userSpaceOnUse" x="54" y="0" width="31" height="66">
<path d="M84.8946 0.0022583H54.3086V65.3356H84.8946V0.0022583Z" fill="white"/>
</mask>
<g mask="url(#mask6_839_26803)">
<path d="M59.3454 45.2012C59.269 45.2012 59.2129 45.1825 59.1764 45.1459C59.139 45.1085 59.1211 45.0524 59.1211 44.9768V5.84058C59.1211 5.65202 59.1959 5.55774 59.3454 5.55774H83.2212C83.3708 5.55774 83.4455 5.65202 83.4455 5.84058V7.1345C83.4455 7.2109 83.4081 7.28649 83.335 7.36208C83.296 7.36208 83.2578 7.36208 83.2212 7.36208C83.1838 7.36208 83.1464 7.36208 83.1074 7.36208C82.2816 6.94838 81.3616 6.6566 80.3473 6.48754C79.3346 6.31849 78.078 6.20633 76.576 6.14943C75.074 6.09335 73.1787 6.0649 70.8899 6.0649H60.6979V25.1551H74.9993C75.1488 25.1551 75.2236 25.2299 75.2236 25.3795C75.2236 25.568 75.1488 25.6623 74.9993 25.6623H60.6979V44.7525H70.8899C73.1787 44.7525 75.074 44.7249 76.576 44.668C78.078 44.6119 79.3346 44.4908 80.3473 44.3039C81.3616 44.1153 82.2816 43.8325 83.1074 43.4554C83.183 43.4188 83.2586 43.4188 83.335 43.4554C83.4081 43.4944 83.4455 43.5708 83.4455 43.6829V44.9768C83.4455 45.1264 83.3708 45.2012 83.2212 45.2012H60.4703C60.4703 45.2012 60.2825 45.2012 59.9079 45.2012C59.5324 45.2012 59.3454 45.2012 59.3454 45.2012Z" fill="black"/>
</g>
</g>
<mask id="mask7_839_26803" style="mask-type:luminance" maskUnits="userSpaceOnUse" x="26" y="0" width="34" height="66">
<path d="M26.8438 0.182373H59.7185V65.2995H26.8438V0.182373Z" fill="white"/>
</mask>
<g mask="url(#mask7_839_26803)">
<mask id="mask8_839_26803" style="mask-type:luminance" maskUnits="userSpaceOnUse" x="26" y="0" width="34" height="66">
<path d="M59.7185 0.0022583H26.8438V65.3356H59.7185V0.0022583Z" fill="white"/>
</mask>
<g mask="url(#mask8_839_26803)">
<path d="M55.104 5.55859C55.2552 5.55859 55.3316 5.65287 55.3316 5.84144V33.0398C55.3316 33.2658 55.3316 33.4714 55.3316 33.6575C55.2926 33.8461 55.2731 34.0533 55.2731 34.2785C55.2357 34.467 55.1991 34.6548 55.1625 34.8409C54.861 36.8305 54.1466 38.6048 53.0201 40.1629C51.8952 41.7218 50.4688 42.9515 48.7417 43.8528C47.0138 44.7526 45.1558 45.202 43.1661 45.202C40.914 45.202 38.8682 44.6583 37.0281 43.57C35.1896 42.4825 33.7259 41.0179 32.6359 39.1778C31.5476 37.3377 31.0039 35.292 31.0039 33.0398V5.84144C31.0039 5.65287 31.0787 5.55859 31.2282 5.55859H32.3563C32.5059 5.55859 32.5807 5.65287 32.5807 5.84144V33.0398C32.5807 35.1059 33.0781 36.9825 34.0729 38.6706C35.0677 40.3596 36.4088 41.7023 38.0977 42.6987C39.7883 43.6935 41.6658 44.1909 43.7318 44.1909C45.5329 44.1909 47.221 43.7781 48.797 42.9523C50.3745 42.1249 51.679 41.0073 52.7112 39.6004C53.7451 38.1919 54.4115 36.5688 54.7106 34.7304C54.7497 34.5792 54.7692 34.428 54.7692 34.2785C54.7692 34.2419 54.7692 34.2232 54.7692 34.2232C54.8057 34.0346 54.8244 33.8461 54.8244 33.6575C54.8244 33.4348 54.8244 33.2284 54.8244 33.0398V5.84144C54.8244 5.65287 54.9171 5.55859 55.104 5.55859Z" fill="black"/>
</g>
</g>
<mask id="mask9_839_26803" style="mask-type:luminance" maskUnits="userSpaceOnUse" x="0" y="0" width="30" height="66">
<path d="M0.160156 0.182373H29.3392V65.2995H0.160156V0.182373Z" fill="white"/>
</mask>
<g mask="url(#mask9_839_26803)">
<mask id="mask10_839_26803" style="mask-type:luminance" maskUnits="userSpaceOnUse" x="0" y="0" width="30" height="66">
<path d="M29.3376 0.0022583H0V65.3356H29.3376V0.0022583Z" fill="white"/>
</mask>
<g mask="url(#mask10_839_26803)">
<path d="M4.40207 27.1249C4.43864 27.2013 4.45734 27.2769 4.45734 27.3525C4.30779 28.2522 4.34518 29.2088 4.57112 30.2232C4.79626 31.2375 5.34 32.2144 6.20316 33.1524C7.0655 34.0911 8.43501 34.8787 10.3125 35.5159C11.7771 36.0035 13.2791 36.2474 14.8185 36.2474C14.968 36.2474 15.155 36.2295 15.3809 36.1921C15.645 36.1921 15.8336 36.1921 15.9466 36.1921C17.7842 36.0425 19.435 35.5833 20.8979 34.8136C22.3626 34.0423 23.5183 33.0662 24.3636 31.8844C25.2089 30.7011 25.6315 29.3966 25.6315 27.9702C25.6315 26.6567 25.2552 25.4278 24.5034 24.2835C23.7532 23.1375 22.7023 22.1703 21.3498 21.3835L7.5556 13.3859C6.01622 12.4846 4.81495 11.3768 3.95017 10.0633C3.08702 8.7499 2.65625 7.34219 2.65625 5.8402C2.65625 5.80362 2.67413 5.74754 2.71152 5.67114C2.74809 5.63457 2.80417 5.61588 2.88057 5.61588H3.78112C3.93229 5.61588 4.00869 5.69065 4.00869 5.8402C4.2704 8.28093 5.6968 10.2519 8.28709 11.7539L22.0846 19.7482C23.6232 20.613 24.8236 21.7119 25.6868 23.0448C26.5491 24.3761 26.9807 25.792 26.9807 27.2939C26.9807 28.9089 26.5012 30.4011 25.5437 31.7707C24.5879 33.141 23.2745 34.2577 21.6034 35.1225C19.934 35.9857 18.0484 36.4912 15.9466 36.6407C15.8336 36.6798 15.6646 36.6993 15.4394 36.6993H15.3256C15.1371 36.6993 14.968 36.6993 14.8185 36.6993C13.2425 36.6993 11.6844 36.4554 10.1434 35.9678C7.8547 35.255 6.0341 34.1106 4.68166 32.5347C3.33084 30.9571 2.65625 29.2104 2.65625 27.2939C2.65625 27.1444 2.73102 27.0696 2.88057 27.0696H4.23301C4.30616 27.0696 4.36306 27.0883 4.40207 27.1249ZM20.1112 40.0218C22.8892 41.0736 24.861 42.6869 26.0249 44.8627C26.0614 44.9391 26.0614 45.0139 26.0249 45.0903C25.9875 45.1634 25.9314 45.2008 25.8558 45.2008H25.1796C25.0666 45.2008 24.9918 45.1439 24.9553 45.0317C24.2791 43.0055 22.608 41.4848 19.9421 40.4705L19.8316 40.4152L19.7178 40.36C19.6048 40.3209 19.4919 40.2836 19.3797 40.2462H19.3244C17.859 39.7585 16.357 39.5334 14.8185 39.57C14.7055 39.57 14.5177 39.57 14.256 39.57C14.0301 39.57 13.8431 39.57 13.6936 39.57C11.6649 39.8325 9.80533 40.4705 8.11478 41.4848C6.42585 42.4992 5.2636 43.6817 4.62639 45.0317C4.58901 45.1439 4.51423 45.2008 4.40207 45.2008H3.83964C3.72666 45.2008 3.65107 45.1634 3.61206 45.0903C3.57467 45.0139 3.57467 44.9391 3.61206 44.8627C4.40044 43.3631 5.71387 42.0879 7.55235 41.0362C9.39245 39.9853 11.4195 39.3473 13.6351 39.1213H13.6936C13.8058 39.1213 13.9748 39.1018 14.2008 39.0628H14.3113C14.5364 39.0628 14.7055 39.0628 14.8185 39.0628C16.396 39.0628 17.9541 39.3066 19.4935 39.7943C19.5666 39.7943 19.6317 39.8138 19.6886 39.8528C19.7446 39.8902 19.8105 39.9081 19.8869 39.9081C19.9625 39.9454 20.0372 39.9828 20.1112 40.0218Z" fill="black"/>
</g>
</g>
</g>
</svg>
