<svg width="118" height="85" viewBox="0 0 118 85" fill="none" xmlns="http://www.w3.org/2000/svg">
<mask id="mask0_415_199" style="mask-type:luminance" maskUnits="userSpaceOnUse" x="0" y="0" width="118" height="85">
<path d="M117.556 0H0V84.7461H117.556V0Z" fill="white"/>
</mask>
<g mask="url(#mask0_415_199)">
<mask id="mask1_415_199" style="mask-type:luminance" maskUnits="userSpaceOnUse" x="93" y="33" width="25" height="52">
<path d="M93.4863 33.1406H117.492V84.7467H93.4863V33.1406Z" fill="white"/>
</mask>
<g mask="url(#mask1_415_199)">
<mask id="mask2_415_199" style="mask-type:luminance" maskUnits="userSpaceOnUse" x="93" y="33" width="25" height="52">
<path d="M117.558 33.1406H93.4863V84.7467H117.558V33.1406Z" fill="white"/>
</mask>
<g mask="url(#mask2_415_199)">
<path d="M97.375 68.8153C97.3145 68.8153 97.27 68.8005 97.2411 68.7716C97.2114 68.7419 97.1973 68.6975 97.1973 68.6376V37.6255C97.1973 37.4761 97.2565 37.4014 97.375 37.4014H116.295C116.413 37.4014 116.472 37.4761 116.472 37.6255V38.6508C116.472 38.7114 116.443 38.7713 116.385 38.8311C116.354 38.8311 116.323 38.8311 116.295 38.8311C116.265 38.8311 116.235 38.8311 116.204 38.8311C115.55 38.5033 114.821 38.2721 114.017 38.1382C113.215 38.0042 112.219 37.9153 111.029 37.8702C109.839 37.8258 108.337 37.8033 106.523 37.8033H98.4467V52.9306H109.779C109.898 52.9306 109.957 52.9899 109.957 53.1084C109.957 53.2578 109.898 53.3325 109.779 53.3325H98.4467V68.4598H106.523C108.337 68.4598 109.839 68.4379 111.029 68.3929C112.219 68.3484 113.215 68.2525 114.017 68.1043C114.821 67.9549 115.55 67.7308 116.204 67.4319C116.264 67.403 116.324 67.403 116.385 67.4319C116.443 67.4629 116.472 67.5234 116.472 67.6123V68.6376C116.472 68.7561 116.413 68.8153 116.295 68.8153H98.2664C98.2664 68.8153 98.1176 68.8153 97.8207 68.8153C97.5232 68.8153 97.375 68.8153 97.375 68.8153Z" fill="#331100"/>
</g>
</g>
<mask id="mask3_415_199" style="mask-type:luminance" maskUnits="userSpaceOnUse" x="65" y="33" width="32" height="52">
<path d="M96.7834 33.1406H65.457V84.7467H96.7834V33.1406Z" fill="white"/>
</mask>
<g mask="url(#mask3_415_199)">
<path d="M69.3106 68.8153C69.25 68.8153 69.2056 68.8005 69.1766 68.7716C69.147 68.7419 69.1328 68.6975 69.1328 68.6376V37.6255C69.1328 37.4761 69.1921 37.4014 69.3106 37.4014H78.9944C81.1649 37.4619 83.1872 37.9082 85.0614 38.741C86.9349 39.5744 88.5856 40.7053 90.0128 42.1338C91.4413 43.561 92.5503 45.2117 93.3386 47.0852C94.1269 48.9594 94.5211 50.9669 94.5211 53.1084C94.5211 55.2814 94.1269 57.3043 93.3386 59.1778C92.5503 61.052 91.4413 62.7034 90.0128 64.1318C88.5856 65.5591 86.9349 66.6823 85.0614 67.5015C83.1872 68.3194 81.1649 68.7567 78.9944 68.8153H70.2019C70.2019 68.8153 70.0532 68.8153 69.7562 68.8153C69.4587 68.8153 69.3106 68.8153 69.3106 68.8153ZM78.5462 37.8033H70.3823V68.4598H78.9481C80.942 68.3999 82.8008 67.9613 84.5255 67.1434C86.2516 66.3242 87.7541 65.2158 89.0338 63.8176C90.3129 62.42 91.317 60.8137 92.0454 59.0001C92.7732 57.1852 93.1377 55.2208 93.1377 53.1084C93.1377 51.0268 92.7732 49.0715 92.0454 47.2424C91.317 45.412 90.3129 43.7974 89.0338 42.3992C87.7541 41.0016 86.2516 39.9016 84.5255 39.0991C82.8008 38.2953 80.942 37.8638 78.9481 37.8033H78.5462Z" fill="#331100"/>
</g>
<mask id="mask4_415_199" style="mask-type:luminance" maskUnits="userSpaceOnUse" x="43" y="33" width="25" height="52">
<path d="M67.2699 33.1406H43.0332V84.7467H67.2699V33.1406Z" fill="white"/>
</mask>
<g mask="url(#mask4_415_199)">
<path d="M47.0254 68.8153C46.9649 68.8153 46.9204 68.8005 46.8915 68.7716C46.8618 68.7419 46.8477 68.6975 46.8477 68.6376V37.6255C46.8477 37.4761 46.9069 37.4014 47.0254 37.4014H65.9449C66.0634 37.4014 66.1227 37.4761 66.1227 37.6255V38.6508C66.1227 38.7114 66.093 38.7713 66.0351 38.8311C66.0042 38.8311 65.9739 38.8311 65.9449 38.8311C65.9153 38.8311 65.8857 38.8311 65.8547 38.8311C65.2004 38.5033 64.4713 38.2721 63.6676 38.1382C62.8651 38.0042 61.8694 37.9153 60.6792 37.8702C59.489 37.8258 57.9871 37.8033 56.1734 37.8033H48.0971V52.9306H59.4297C59.5482 52.9306 59.6075 52.9899 59.6075 53.1084C59.6075 53.2578 59.5482 53.3325 59.4297 53.3325H48.0971V68.4598H56.1734C57.9871 68.4598 59.489 68.4379 60.6792 68.3929C61.8694 68.3484 62.8651 68.2525 63.6676 68.1043C64.4713 67.9549 65.2004 67.7308 65.8547 67.4319C65.9146 67.403 65.9745 67.403 66.0351 67.4319C66.093 67.4629 66.1227 67.5234 66.1227 67.6123V68.6376C66.1227 68.7561 66.0634 68.8153 65.9449 68.8153H47.9168C47.9168 68.8153 47.768 68.8153 47.4711 68.8153C47.1735 68.8153 47.0254 68.8153 47.0254 68.8153Z" fill="#331100"/>
</g>
<mask id="mask5_415_199" style="mask-type:luminance" maskUnits="userSpaceOnUse" x="21" y="33" width="27" height="52">
<path d="M47.3199 33.1406H21.2695V84.7467H47.3199V33.1406Z" fill="white"/>
</mask>
<g mask="url(#mask5_415_199)">
<path d="M43.6617 37.4014C43.7815 37.4014 43.842 37.4761 43.842 37.6255V59.1778C43.842 59.3569 43.842 59.5198 43.842 59.6673C43.8111 59.8167 43.7957 59.981 43.7957 60.1594C43.766 60.3088 43.7371 60.4576 43.7081 60.6051C43.4691 62.1817 42.903 63.5876 42.0104 64.8223C41.119 66.0575 39.9887 67.032 38.6201 67.7462C37.2509 68.4592 35.7786 68.8153 34.202 68.8153C32.4173 68.8153 30.7962 68.3845 29.3381 67.5221C27.8813 66.6604 26.7214 65.4998 25.8577 64.0417C24.9953 62.5836 24.5645 60.9625 24.5645 59.1778V37.6255C24.5645 37.4761 24.6237 37.4014 24.7422 37.4014H25.6361C25.7546 37.4014 25.8139 37.4761 25.8139 37.6255V59.1778C25.8139 60.815 26.2081 62.3021 26.9964 63.6398C27.7847 64.9781 28.8474 66.0421 30.1857 66.8317C31.5253 67.62 33.013 68.0142 34.6502 68.0142C36.0774 68.0142 37.4151 67.687 38.6639 67.0326C39.914 66.377 40.9477 65.4914 41.7656 64.3766C42.5849 63.2605 43.113 61.9743 43.35 60.5175C43.3809 60.3977 43.3964 60.2779 43.3964 60.1594C43.3964 60.1304 43.3964 60.1156 43.3964 60.1156C43.4253 59.9662 43.4401 59.8167 43.4401 59.6673C43.4401 59.4909 43.4401 59.3273 43.4401 59.1778V37.6255C43.4401 37.4761 43.5136 37.4014 43.6617 37.4014Z" fill="#331100"/>
</g>
<mask id="mask6_415_199" style="mask-type:luminance" maskUnits="userSpaceOnUse" x="0" y="33" width="24" height="52">
<path d="M0.125 33.1406H23.2469V84.7467H0.125V33.1406Z" fill="white"/>
</mask>
<g mask="url(#mask6_415_199)">
<mask id="mask7_415_199" style="mask-type:luminance" maskUnits="userSpaceOnUse" x="0" y="33" width="24" height="52">
<path d="M23.2494 33.1406H0.00195312V84.7467H23.2494V33.1406Z" fill="white"/>
</mask>
<g mask="url(#mask7_415_199)">
<path d="M3.49083 54.4923C3.51981 54.5528 3.53463 54.6127 3.53463 54.6726C3.41612 55.3856 3.44575 56.1436 3.62479 56.9474C3.80319 57.7511 4.23406 58.5253 4.91804 59.2685C5.60137 60.0124 6.68659 60.6365 8.17433 61.1414C9.3349 61.5278 10.5251 61.721 11.7449 61.721C11.8634 61.721 12.0116 61.7069 12.1906 61.6772C12.3999 61.6772 12.5493 61.6772 12.6389 61.6772C14.095 61.5587 15.4031 61.1949 16.5624 60.5849C17.723 59.9737 18.6388 59.2003 19.3086 58.2638C19.9784 57.3261 20.3133 56.2924 20.3133 55.1621C20.3133 54.1213 20.0151 53.1475 19.4194 52.2407C18.8249 51.3326 17.9922 50.5662 16.9205 49.9427L5.98973 43.6053C4.76991 42.8911 3.81801 42.0132 3.13274 40.9725C2.44877 39.9317 2.10742 38.8162 2.10742 37.626C2.10742 37.597 2.12159 37.5526 2.15122 37.492C2.1802 37.4631 2.22464 37.4482 2.28518 37.4482H2.99878C3.11857 37.4482 3.17911 37.5075 3.17911 37.626C3.3865 39.5601 4.5168 41.1219 6.56937 42.3121L17.5027 48.6469C18.7219 49.3322 19.6731 50.2029 20.3571 51.2592C21.0404 52.3141 21.3824 53.436 21.3824 54.6262C21.3824 55.906 21.0024 57.0884 20.2438 58.1736C19.4864 59.2595 18.4456 60.1444 17.1214 60.8297C15.7985 61.5137 14.3044 61.9143 12.6389 62.0328C12.5493 62.0637 12.4154 62.0791 12.237 62.0791H12.1468C11.9974 62.0791 11.8634 62.0791 11.7449 62.0791C10.4961 62.0791 9.26148 61.8859 8.04037 61.4995C6.22674 60.9347 4.78408 60.0278 3.71238 58.779C2.64198 57.5289 2.10742 56.1449 2.10742 54.6262C2.10742 54.5077 2.16667 54.4485 2.28518 54.4485H3.35687C3.41483 54.4485 3.45992 54.4633 3.49083 54.4923ZM15.9389 64.712C18.1403 65.5454 19.7028 66.8238 20.625 68.5479C20.654 68.6085 20.654 68.6677 20.625 68.7283C20.5954 68.7862 20.551 68.8159 20.4911 68.8159H19.9552C19.8657 68.8159 19.8064 68.7708 19.7775 68.6819C19.2416 67.0763 17.9175 65.8713 15.805 65.0675L15.7174 65.0237L15.6272 64.9799C15.5377 64.949 15.4482 64.9194 15.3593 64.8898H15.3155C14.1543 64.5033 12.9641 64.3249 11.7449 64.3539C11.6554 64.3539 11.5066 64.3539 11.2992 64.3539C11.1202 64.3539 10.9721 64.3539 10.8536 64.3539C9.24603 64.5619 7.77245 65.0675 6.43283 65.8713C5.09451 66.675 4.17352 67.6121 3.66859 68.6819C3.63896 68.7708 3.57971 68.8159 3.49083 68.8159H3.04515C2.95563 68.8159 2.89573 68.7862 2.86482 68.7283C2.83519 68.6677 2.83519 68.6085 2.86482 68.5479C3.48954 67.3597 4.53032 66.3492 5.98715 65.5158C7.44527 64.683 9.05152 64.1774 10.8072 63.9984H10.8536C10.9424 63.9984 11.0764 63.9829 11.2554 63.952H11.343C11.5214 63.952 11.6554 63.952 11.7449 63.952C12.995 63.952 14.2297 64.1452 15.4495 64.5317C15.5074 64.5317 15.559 64.5471 15.604 64.578C15.6485 64.6077 15.7007 64.6218 15.7612 64.6218C15.8211 64.6515 15.8803 64.6811 15.9389 64.712Z" fill="#331100"/>
</g>
</g>
<mask id="mask8_415_199" style="mask-type:luminance" maskUnits="userSpaceOnUse" x="39" y="6" width="30" height="34">
<path d="M68.919 6.92578H39.4062V39.0766H68.919V6.92578Z" fill="white"/>
</mask>
<g mask="url(#mask8_415_199)">
<path d="M48.8039 23.9261C48.84 23.9435 48.8683 23.966 48.8889 23.9931C49.095 24.364 49.3874 24.7015 49.7648 25.0055C50.1409 25.3082 50.6227 25.5046 51.2101 25.5954C51.7961 25.685 52.5226 25.5742 53.3921 25.2631C54.0651 25.0145 54.6815 24.6667 55.2418 24.2198C55.2965 24.1753 55.3603 24.1135 55.4324 24.0343C55.5265 23.9589 55.5947 23.9048 55.6359 23.872C56.2607 23.2833 56.727 22.6367 57.0348 21.9321C57.344 21.2262 57.4805 20.5358 57.4444 19.8609C57.4084 19.1846 57.1829 18.5876 56.7695 18.0704C56.3882 17.5912 55.8942 17.2531 55.2882 17.0554C54.6815 16.8564 54.0187 16.81 53.2993 16.9163L45.9598 18.0163C45.1393 18.1348 44.3806 18.0807 43.685 17.854C42.9882 17.6273 42.4214 17.2402 41.9847 16.6922C41.9744 16.6806 41.9661 16.6535 41.959 16.6123C41.9628 16.5885 41.9783 16.5659 42.0054 16.5453L42.3325 16.2825C42.3879 16.2381 42.4369 16.2433 42.4794 16.298C43.2831 17.1108 44.3748 17.4135 45.7537 17.2074L53.0907 16.1074C53.9009 15.9753 54.657 16.0269 55.3577 16.2619C56.0597 16.4957 56.6291 16.8854 57.0657 17.4315C57.5346 18.0189 57.7929 18.7009 57.8412 19.477C57.8907 20.2537 57.7368 21.0408 57.38 21.8394C57.0245 22.638 56.4861 23.3696 55.7648 24.0343C55.7351 24.0826 55.6804 24.1393 55.5999 24.2043L55.5561 24.2378C55.4891 24.2913 55.4279 24.3402 55.3732 24.3846C54.7993 24.8419 54.1611 25.2052 53.4591 25.4744C52.4202 25.8801 51.4258 25.9922 50.4758 25.8118C49.5246 25.6302 48.7717 25.191 48.2165 24.4954C48.1721 24.4407 48.1779 24.3917 48.2346 24.3486L48.724 23.9544C48.7537 23.9325 48.7801 23.9229 48.8039 23.9261ZM58.2637 24.0549C59.5775 23.6292 60.7632 23.644 61.8214 24.0987C61.8536 24.1161 61.8742 24.1438 61.8832 24.1811C61.8935 24.2191 61.8845 24.2481 61.8574 24.2687L61.6127 24.4671C61.5715 24.4999 61.5264 24.5006 61.4787 24.4697C60.6453 23.9287 59.5968 23.861 58.3332 24.2661L58.274 24.279L58.2199 24.2893C58.1645 24.3099 58.1117 24.3299 58.0601 24.3486L58.0395 24.364C57.3659 24.6133 56.7547 24.9681 56.2053 25.428C56.1641 25.4608 56.0951 25.5149 55.9992 25.5903C55.918 25.656 55.8504 25.7107 55.7957 25.7552C55.1362 26.4404 54.6454 27.2126 54.3247 28.0712C54.0052 28.9303 53.9254 29.698 54.0851 30.3743C54.1057 30.4258 54.0954 30.4683 54.0542 30.5005L53.8506 30.6654C53.8094 30.6963 53.7695 30.704 53.7321 30.6886C53.6974 30.6731 53.6768 30.6461 53.6703 30.6061C53.5209 29.832 53.6272 28.987 53.9898 28.0712C54.3536 27.154 54.9056 26.3322 55.6462 25.6057L55.6669 25.5903C55.7081 25.5581 55.7635 25.5021 55.8343 25.4228L55.8755 25.3893C55.958 25.3243 56.0198 25.2754 56.061 25.2425C56.6342 24.7839 57.2705 24.4207 57.97 24.1528C57.9989 24.1309 58.0279 24.118 58.0576 24.1141C58.0885 24.1109 58.1175 24.0987 58.1451 24.0781C58.1844 24.0716 58.2237 24.0639 58.2637 24.0549Z" fill="#331100"/>
</g>
<mask id="mask9_415_199" style="mask-type:luminance" maskUnits="userSpaceOnUse" x="48" y="0" width="30" height="33">
<path d="M48.1445 0.106445H77.6573V32.3165H48.1445V0.106445Z" fill="white"/>
</mask>
<g mask="url(#mask9_415_199)">
<mask id="mask10_415_199" style="mask-type:luminance" maskUnits="userSpaceOnUse" x="48" y="0" width="30" height="33">
<path d="M77.6573 0H48.1445V32.3156H77.6573V0Z" fill="white"/>
</mask>
<g mask="url(#mask10_415_199)">
<path d="M68.2553 15.2292C68.2192 15.2118 68.1909 15.1893 68.1703 15.1622C67.9642 14.7912 67.6718 14.4538 67.2944 14.1498C66.9183 13.8471 66.4365 13.6506 65.8492 13.5598C65.2631 13.4703 64.5366 13.5811 63.6671 13.8922C62.9941 14.1408 62.3777 14.4885 61.8174 14.9355C61.7627 14.9799 61.6989 15.0418 61.6268 15.121C61.5328 15.1963 61.4645 15.2504 61.4233 15.2833C60.7985 15.872 60.3323 16.5186 60.0244 17.2232C59.7153 17.929 59.5787 18.6195 59.6148 19.2944C59.6509 19.9707 59.8763 20.5677 60.2897 21.0849C60.671 21.564 61.165 21.9022 61.7711 22.0999C62.3777 22.2989 63.0405 22.3453 63.7599 22.239L71.0994 21.139C71.9199 21.0205 72.6786 21.0746 73.3742 21.3013C74.071 21.528 74.6378 21.915 75.0745 22.4631C75.0848 22.4747 75.0931 22.5018 75.1002 22.543C75.0964 22.5668 75.0809 22.5894 75.0539 22.61L74.7267 22.8727C74.6713 22.9172 74.6223 22.912 74.5798 22.8573C73.7761 22.0445 72.6844 21.7418 71.3055 21.9479L63.9685 23.0479C63.1583 23.1799 62.4022 23.1284 61.7015 22.8933C60.9995 22.6596 60.4301 22.2699 59.9935 21.7238C59.5246 21.1364 59.2664 20.4543 59.2181 19.6783C59.1685 18.9015 59.3224 18.1145 59.6792 17.3159C60.0347 16.5173 60.5731 15.7857 61.2945 15.121C61.3241 15.0727 61.3788 15.016 61.4593 14.951L61.5031 14.9175C61.5701 14.864 61.6313 14.8151 61.686 14.7706C62.2599 14.3134 62.8981 13.9501 63.6001 13.6809C64.639 13.2752 65.6334 13.1631 66.5834 13.3434C67.5346 13.525 68.2875 13.9643 68.8427 14.6599C68.8871 14.7146 68.8813 14.7635 68.8246 14.8067L68.3352 15.2009C68.3055 15.2228 68.2791 15.2324 68.2553 15.2292ZM58.7956 15.1004C57.4817 15.5261 56.296 15.5113 55.2379 15.0566C55.2056 15.0392 55.185 15.0115 55.176 14.9742C55.1657 14.9362 55.1747 14.9072 55.2018 14.8866L55.4465 14.6882C55.4877 14.6553 55.5328 14.6547 55.5805 14.6856C56.4139 15.2266 57.4624 15.2942 58.726 14.8891L58.7853 14.8763L58.8394 14.866C58.8947 14.8453 58.9476 14.8254 58.9991 14.8067L59.0197 14.7912C59.6934 14.542 60.3046 14.1871 60.8539 13.7273C60.8952 13.6944 60.9641 13.6403 61.06 13.565C61.1412 13.4993 61.2088 13.4445 61.2635 13.4001C61.923 12.7148 62.4138 11.9426 62.7345 11.0841C63.054 10.225 63.1339 9.45726 62.9741 8.78101C62.9535 8.72948 62.9638 8.68698 63.005 8.65477L63.2086 8.4899C63.2498 8.45898 63.2897 8.45126 63.3271 8.46671C63.3618 8.48217 63.3825 8.50922 63.3889 8.54915C63.5383 9.32329 63.432 10.1683 63.0694 11.0841C62.7056 12.0012 62.1536 12.823 61.413 13.5495L61.3924 13.565C61.3511 13.5972 61.2957 13.6532 61.2249 13.7324L61.1837 13.7659C61.1012 13.831 61.0394 13.8799 60.9982 13.9128C60.425 14.3713 59.7887 14.7346 59.0892 15.0025C59.0603 15.0244 59.0313 15.0373 59.0017 15.0411C58.9707 15.0444 58.9418 15.0566 58.9141 15.0772C58.8748 15.0836 58.8355 15.0914 58.7956 15.1004Z" fill="#331100"/>
</g>
</g>
</g>
</svg>
