<svg width="114" height="83" viewBox="0 0 114 83" fill="none" xmlns="http://www.w3.org/2000/svg">
<mask id="mask0_494_17772" style="mask-type:luminance" maskUnits="userSpaceOnUse" x="0" y="0" width="114" height="83">
<path d="M114 0H0V82.1823H114V0Z" fill="white"/>
</mask>
<g mask="url(#mask0_494_17772)">
<mask id="mask1_494_17772" style="mask-type:luminance" maskUnits="userSpaceOnUse" x="90" y="32" width="24" height="51">
<path d="M90.6562 32.1377H113.936V82.1826H90.6562V32.1377Z" fill="white"/>
</mask>
<g mask="url(#mask1_494_17772)">
<mask id="mask2_494_17772" style="mask-type:luminance" maskUnits="userSpaceOnUse" x="90" y="32" width="24" height="51">
<path d="M114 32.1377H90.6562V82.1826H114V32.1377Z" fill="white"/>
</mask>
<g mask="url(#mask2_494_17772)">
<path d="M94.4263 66.7332C94.3676 66.7332 94.3245 66.7188 94.2964 66.6907C94.2676 66.662 94.2539 66.6189 94.2539 66.5608V36.4869C94.2539 36.342 94.3114 36.2695 94.4263 36.2695H112.773C112.888 36.2695 112.946 36.342 112.946 36.4869V37.4812C112.946 37.5399 112.917 37.598 112.861 37.6561C112.831 37.6561 112.802 37.6561 112.773 37.6561C112.745 37.6561 112.716 37.6561 112.686 37.6561C112.051 37.3382 111.344 37.1139 110.565 36.984C109.787 36.8541 108.821 36.7679 107.667 36.7242C106.513 36.6811 105.056 36.6593 103.298 36.6593H95.4656V51.329H106.455C106.57 51.329 106.628 51.3864 106.628 51.5013C106.628 51.6462 106.57 51.7187 106.455 51.7187H95.4656V66.3884H103.298C105.056 66.3884 106.513 66.3672 107.667 66.3234C108.821 66.2803 109.787 66.1873 110.565 66.0436C111.344 65.8987 112.051 65.6814 112.686 65.3916C112.744 65.3635 112.802 65.3635 112.861 65.3916C112.917 65.4216 112.946 65.4803 112.946 65.5665V66.5608C112.946 66.6757 112.888 66.7332 112.773 66.7332H95.2907C95.2907 66.7332 95.1464 66.7332 94.8585 66.7332C94.5699 66.7332 94.4263 66.7332 94.4263 66.7332Z" fill="white"/>
</g>
</g>
<mask id="mask3_494_17772" style="mask-type:luminance" maskUnits="userSpaceOnUse" x="63" y="32" width="31" height="51">
<path d="M93.8533 32.1377H63.4746V82.1826H93.8533V32.1377Z" fill="white"/>
</mask>
<g mask="url(#mask3_494_17772)">
<path d="M67.2114 66.7332C67.1527 66.7332 67.1096 66.7188 67.0815 66.6907C67.0528 66.662 67.0391 66.6189 67.0391 66.5608V36.4869C67.0391 36.342 67.0965 36.2695 67.2114 36.2695H76.6024C78.7071 36.3282 80.6682 36.7611 82.4857 37.5686C84.3026 38.3768 85.9033 39.4735 87.2874 40.8588C88.6726 42.2428 89.7481 43.8436 90.5126 45.6604C91.2771 47.4779 91.6593 49.4247 91.6593 51.5013C91.6593 53.6086 91.2771 55.5704 90.5126 57.3872C89.7481 59.2047 88.6726 60.8061 87.2874 62.1913C85.9033 63.5754 84.3026 64.6646 82.4857 65.459C80.6682 66.2522 78.7071 66.6763 76.6024 66.7332H68.0758C68.0758 66.7332 67.9316 66.7332 67.6436 66.7332C67.3551 66.7332 67.2114 66.7332 67.2114 66.7332ZM76.1677 36.6593H68.2507V66.3884H76.5574C78.491 66.3303 80.2935 65.905 81.9661 65.1118C83.6399 64.3173 85.097 63.2425 86.338 61.8866C87.5784 60.5313 88.5521 58.9736 89.2585 57.2148C89.9642 55.4548 90.3177 53.5499 90.3177 51.5013C90.3177 49.4828 89.9642 47.5866 89.2585 45.8128C88.5521 44.0378 87.5784 42.4721 86.338 41.1161C85.097 39.7608 83.6399 38.6941 81.9661 37.9159C80.2935 37.1364 78.491 36.718 76.5574 36.6593H76.1677Z" fill="white"/>
</g>
<mask id="mask4_494_17772" style="mask-type:luminance" maskUnits="userSpaceOnUse" x="41" y="32" width="25" height="51">
<path d="M65.234 32.1377H41.7305V82.1826H65.234V32.1377Z" fill="white"/>
</mask>
<g mask="url(#mask4_494_17772)">
<path d="M45.6001 66.7332C45.5414 66.7332 45.4983 66.7188 45.4702 66.6907C45.4415 66.662 45.4277 66.6189 45.4277 66.5608V36.4869C45.4277 36.342 45.4852 36.2695 45.6001 36.2695H63.9472C64.0622 36.2695 64.1196 36.342 64.1196 36.4869V37.4812C64.1196 37.5399 64.0909 37.598 64.0347 37.6561C64.0047 37.6561 63.9753 37.6561 63.9472 37.6561C63.9185 37.6561 63.8898 37.6561 63.8598 37.6561C63.2252 37.3382 62.5182 37.1139 61.7388 36.984C60.9606 36.8541 59.995 36.7679 58.8408 36.7242C57.6866 36.6811 56.2302 36.6593 54.4714 36.6593H46.6394V51.329H57.6292C57.7441 51.329 57.8016 51.3864 57.8016 51.5013C57.8016 51.6462 57.7441 51.7187 57.6292 51.7187H46.6394V66.3884H54.4714C56.2302 66.3884 57.6866 66.3672 58.8408 66.3234C59.995 66.2803 60.9606 66.1873 61.7388 66.0436C62.5182 65.8987 63.2252 65.6814 63.8598 65.3916C63.9179 65.3635 63.976 65.3635 64.0347 65.3916C64.0909 65.4216 64.1196 65.4803 64.1196 65.5665V66.5608C64.1196 66.6757 64.0622 66.7332 63.9472 66.7332H46.4645C46.4645 66.7332 46.3202 66.7332 46.0323 66.7332C45.7438 66.7332 45.6001 66.7332 45.6001 66.7332Z" fill="white"/>
</g>
<mask id="mask5_494_17772" style="mask-type:luminance" maskUnits="userSpaceOnUse" x="20" y="32" width="26" height="51">
<path d="M45.8873 32.1377H20.625V82.1826H45.8873V32.1377Z" fill="white"/>
</mask>
<g mask="url(#mask5_494_17772)">
<path d="M42.3398 36.2695C42.456 36.2695 42.5147 36.342 42.5147 36.4869V57.3872C42.5147 57.5608 42.5147 57.7189 42.5147 57.8619C42.4847 58.0068 42.4697 58.166 42.4697 58.339C42.441 58.4839 42.4129 58.6282 42.3848 58.7712C42.1531 60.3002 41.6041 61.6636 40.7384 62.8609C39.874 64.0588 38.7779 65.0037 37.4507 65.6964C36.1229 66.3878 34.6952 66.7332 33.1663 66.7332C31.4356 66.7332 29.8636 66.3153 28.4496 65.479C27.0368 64.6434 25.912 63.5179 25.0744 62.1039C24.2381 60.6899 23.8203 59.1179 23.8203 57.3872V36.4869C23.8203 36.342 23.8778 36.2695 23.9927 36.2695H24.8596C24.9745 36.2695 25.032 36.342 25.032 36.4869V57.3872C25.032 58.9748 25.4142 60.417 26.1787 61.7142C26.9431 63.012 27.9736 64.0438 29.2715 64.8095C30.5706 65.574 32.0133 65.9562 33.6009 65.9562C34.985 65.9562 36.2822 65.6389 37.4932 65.0044C38.7055 64.3686 39.7079 63.5098 40.5011 62.4287C41.2955 61.3463 41.8077 60.0991 42.0375 58.6863C42.0675 58.5701 42.0825 58.454 42.0825 58.339C42.0825 58.3109 42.0825 58.2966 42.0825 58.2966C42.1106 58.1517 42.125 58.0068 42.125 57.8619C42.125 57.6907 42.125 57.5321 42.125 57.3872V36.4869C42.125 36.342 42.1962 36.2695 42.3398 36.2695Z" fill="white"/>
</g>
<mask id="mask6_494_17772" style="mask-type:luminance" maskUnits="userSpaceOnUse" x="0" y="32" width="23" height="51">
<path d="M0.121094 32.1377H22.5435V82.1826H0.121094V32.1377Z" fill="white"/>
</mask>
<g mask="url(#mask6_494_17772)">
<mask id="mask7_494_17772" style="mask-type:luminance" maskUnits="userSpaceOnUse" x="0" y="32" width="23" height="51">
<path d="M22.5442 32.1377H0V82.1826H22.5442V32.1377Z" fill="white"/>
</mask>
<g mask="url(#mask7_494_17772)">
<path d="M3.38453 52.8429C3.41263 52.9016 3.427 52.9596 3.427 53.0177C3.31208 53.7091 3.34081 54.4442 3.51444 55.2237C3.68744 56.0031 4.10527 56.7539 4.76856 57.4746C5.43122 58.196 6.4836 58.8012 7.92634 59.2908C9.0518 59.6656 10.206 59.8529 11.3889 59.8529C11.5038 59.8529 11.6475 59.8392 11.8211 59.8105C12.0241 59.8105 12.169 59.8105 12.2558 59.8105C13.6679 59.6955 14.9364 59.3427 16.0606 58.7512C17.1861 58.1585 18.0742 57.4084 18.7238 56.5003C19.3733 55.5909 19.6981 54.5885 19.6981 53.4924C19.6981 52.4831 19.4089 51.5388 18.8312 50.6594C18.2547 49.7788 17.4472 49.0355 16.4079 48.431L5.80783 42.2853C4.62491 41.5926 3.7018 40.7413 3.03727 39.7321C2.37399 38.7228 2.04297 37.641 2.04297 36.4868C2.04297 36.4587 2.05671 36.4156 2.08544 36.3569C2.11354 36.3288 2.15664 36.3145 2.21535 36.3145H2.90736C3.02353 36.3145 3.08224 36.3719 3.08224 36.4868C3.28335 38.3624 4.37945 39.877 6.36993 41.0311L16.9725 47.1743C18.1548 47.8389 19.0773 48.6833 19.7406 49.7076C20.4032 50.7306 20.7349 51.8186 20.7349 52.9728C20.7349 54.2138 20.3664 55.3605 19.6306 56.4128C18.8961 57.4659 17.8869 58.324 16.6028 58.9885C15.3199 59.6518 13.8709 60.0403 12.2558 60.1552C12.169 60.1852 12.0391 60.2002 11.8661 60.2002H11.7786C11.6337 60.2002 11.5038 60.2002 11.3889 60.2002C10.1779 60.2002 8.9806 60.0128 7.79643 59.6381C6.03767 59.0903 4.63865 58.211 3.59938 56.9999C2.56135 55.7877 2.04297 54.4455 2.04297 52.9728C2.04297 52.8578 2.10043 52.8004 2.21535 52.8004H3.25462C3.31083 52.8004 3.35455 52.8147 3.38453 52.8429ZM15.4561 62.7534C17.5908 63.5616 19.106 64.8013 20.0004 66.4733C20.0285 66.532 20.0285 66.5895 20.0004 66.6482C19.9716 66.7044 19.9285 66.7331 19.8705 66.7331H19.3508C19.264 66.7331 19.2066 66.6894 19.1784 66.6032C18.6588 65.0462 17.3747 63.8776 15.3261 63.0982L15.2412 63.0557L15.1538 63.0132C15.067 62.9832 14.9801 62.9545 14.894 62.9258H14.8515C13.7254 62.551 12.5712 62.378 11.3889 62.4061C11.3021 62.4061 11.1578 62.4061 10.9567 62.4061C10.7831 62.4061 10.6394 62.4061 10.5245 62.4061C8.96561 62.6079 7.53661 63.0982 6.23753 63.8776C4.93969 64.6571 4.04656 65.5658 3.55691 66.6032C3.52818 66.6894 3.47072 66.7331 3.38453 66.7331H2.95233C2.86552 66.7331 2.80743 66.7044 2.77745 66.6482C2.74872 66.5895 2.74872 66.532 2.77745 66.4733C3.38328 65.321 4.39257 64.341 5.80533 63.5329C7.21934 62.7253 8.77699 62.235 10.4795 62.0614H10.5245C10.6107 62.0614 10.7406 62.0464 10.9142 62.0164H10.9992C11.1722 62.0164 11.3021 62.0164 11.3889 62.0164C12.6012 62.0164 13.7985 62.2038 14.9814 62.5785C15.0376 62.5785 15.0876 62.5935 15.1313 62.6235C15.1744 62.6522 15.225 62.666 15.2837 62.666C15.3418 62.6947 15.3992 62.7234 15.4561 62.7534Z" fill="white"/>
</g>
</g>
<mask id="mask8_494_17772" style="mask-type:luminance" maskUnits="userSpaceOnUse" x="38" y="6" width="29" height="32">
<path d="M66.8328 6.71484H38.2129V37.893H66.8328V6.71484Z" fill="white"/>
</mask>
<g mask="url(#mask8_494_17772)">
<path d="M47.3292 23.2011C47.3642 23.2179 47.3917 23.2398 47.4117 23.266C47.6116 23.6258 47.8951 23.953 48.2611 24.2478C48.6258 24.5414 49.093 24.7319 49.6626 24.8199C50.231 24.9067 50.9355 24.7993 51.7786 24.4976C52.4313 24.2566 53.029 23.9193 53.5724 23.4859C53.6255 23.4428 53.6873 23.3828 53.7572 23.306C53.8484 23.2329 53.9146 23.1804 53.9546 23.1486C54.5604 22.5777 55.0126 21.9507 55.3111 21.2674C55.6109 20.5829 55.7433 19.9134 55.7084 19.2588C55.6734 18.603 55.4548 18.0241 55.0538 17.5225C54.6841 17.0579 54.205 16.73 53.6173 16.5382C53.029 16.3452 52.3863 16.3003 51.6887 16.4033L44.5712 17.4701C43.7755 17.585 43.0398 17.5325 42.3652 17.3127C41.6895 17.0928 41.1398 16.7175 40.7164 16.186C40.7064 16.1747 40.6983 16.1485 40.6914 16.1085C40.6952 16.0854 40.7101 16.0636 40.7364 16.0436L41.0537 15.7888C41.1074 15.7457 41.1548 15.7507 41.1961 15.8037C41.9755 16.5919 43.0341 16.8855 44.3713 16.6856L51.4863 15.6189C52.272 15.4908 53.0053 15.5408 53.6848 15.7688C54.3656 15.9955 54.9177 16.3733 55.3411 16.903C55.7958 17.4726 56.0463 18.134 56.0931 18.8866C56.1412 19.6398 55.9919 20.403 55.6459 21.1775C55.3012 21.9519 54.779 22.6614 54.0795 23.306C54.0508 23.3528 53.9977 23.4078 53.9196 23.4709L53.8772 23.5033C53.8122 23.5552 53.7529 23.6026 53.6998 23.6457C53.1433 24.0892 52.5244 24.4414 51.8436 24.7025C50.8362 25.096 49.8718 25.2046 48.9506 25.0298C48.0281 24.8536 47.298 24.4277 46.7596 23.7532C46.7166 23.7001 46.7222 23.6526 46.7771 23.6108L47.2518 23.2285C47.2805 23.2073 47.3061 23.1979 47.3292 23.2011ZM56.5028 23.326C57.7769 22.9131 58.9267 22.9275 59.9529 23.3684C59.9841 23.3853 60.0041 23.4122 60.0128 23.4484C60.0228 23.4852 60.0141 23.5133 59.9879 23.5333L59.7505 23.7257C59.7106 23.7575 59.6668 23.7582 59.6206 23.7282C58.8124 23.2036 57.7957 23.138 56.5703 23.5308L56.5128 23.5433L56.4603 23.5533C56.4066 23.5733 56.3554 23.5927 56.3054 23.6108L56.2855 23.6258C55.6322 23.8675 55.0395 24.2116 54.5067 24.6575C54.4667 24.6894 54.3999 24.7418 54.3069 24.8149C54.2282 24.8786 54.1626 24.9317 54.1095 24.9748C53.4699 25.6393 52.994 26.3882 52.683 27.2207C52.3732 28.0539 52.2958 28.7984 52.4507 29.4542C52.4706 29.5041 52.4606 29.5454 52.4207 29.5766L52.2233 29.7365C52.1833 29.7664 52.1446 29.7739 52.1084 29.759C52.0747 29.744 52.0547 29.7177 52.0484 29.679C51.9035 28.9283 52.0066 28.1089 52.3582 27.2207C52.7111 26.3314 53.2463 25.5344 53.9646 24.8299L53.9846 24.8149C54.0246 24.7837 54.0783 24.7294 54.147 24.6525L54.1869 24.6201C54.2669 24.557 54.3268 24.5095 54.3668 24.4777C54.9227 24.033 55.5397 23.6807 56.218 23.4209C56.2461 23.3997 56.2742 23.3872 56.303 23.3834C56.3329 23.3803 56.361 23.3684 56.3879 23.3485C56.426 23.3422 56.4641 23.3347 56.5028 23.326Z" fill="white"/>
</g>
<mask id="mask9_494_17772" style="mask-type:luminance" maskUnits="userSpaceOnUse" x="46" y="0" width="30" height="32">
<path d="M46.6855 0.102539H75.3055V31.3381H46.6855V0.102539Z" fill="white"/>
</mask>
<g mask="url(#mask9_494_17772)">
<mask id="mask10_494_17772" style="mask-type:luminance" maskUnits="userSpaceOnUse" x="46" y="0" width="30" height="32">
<path d="M75.3055 0H46.6855V31.338H75.3055V0Z" fill="white"/>
</mask>
<g mask="url(#mask10_494_17772)">
<path d="M66.1876 14.7675C66.1526 14.7507 66.1252 14.7288 66.1052 14.7026C65.9053 14.3428 65.6218 14.0156 65.2558 13.7208C64.891 13.4272 64.4239 13.2367 63.8543 13.1487C63.2859 13.0619 62.5814 13.1693 61.7382 13.471C61.0856 13.712 60.4879 14.0493 59.9445 14.4827C59.8914 14.5258 59.8296 14.5858 59.7596 14.6626C59.6684 14.7357 59.6022 14.7882 59.5623 14.82C58.9564 15.3909 58.5043 16.0179 58.2057 16.7012C57.9059 17.3857 57.7735 18.0552 57.8085 18.7098C57.8435 19.3656 58.0621 19.9445 58.463 20.4461C58.8328 20.9107 59.3118 21.2386 59.8995 21.4304C60.4879 21.6234 61.1305 21.6683 61.8282 21.5653L68.9457 20.4985C69.7414 20.3836 70.4771 20.4361 71.1516 20.6559C71.8274 20.8758 72.377 21.2511 72.8005 21.7826C72.8105 21.7939 72.8186 21.8201 72.8255 21.8601C72.8217 21.8832 72.8067 21.905 72.7805 21.925L72.4632 22.1798C72.4095 22.2229 72.362 22.2179 72.3208 22.1649C71.5414 21.3767 70.4827 21.0831 69.1455 21.283L62.0305 22.3497C61.2448 22.4778 60.5116 22.4278 59.8321 22.1998C59.1513 21.9731 58.5992 21.5953 58.1757 21.0656C57.7211 20.496 57.4706 19.8346 57.4238 19.082C57.3757 18.3288 57.5249 17.5656 57.871 16.7911C58.2157 16.0167 58.7378 15.3072 59.4374 14.6626C59.4661 14.6158 59.5192 14.5608 59.5972 14.4977L59.6397 14.4653C59.7047 14.4134 59.764 14.3659 59.8171 14.3229C60.3736 13.8794 60.9925 13.5272 61.6733 13.2661C62.6807 12.8726 63.645 12.7639 64.5663 12.9388C65.4887 13.115 66.2188 13.5409 66.7572 14.2154C66.8003 14.2685 66.7947 14.316 66.7397 14.3578L66.2651 14.7401C66.2363 14.7613 66.2107 14.7707 66.1876 14.7675ZM57.0141 14.6426C55.74 15.0555 54.5901 15.0411 53.564 14.6002C53.5328 14.5833 53.5128 14.5564 53.504 14.5202C53.494 14.4834 53.5028 14.4553 53.529 14.4353L53.7663 14.2429C53.8063 14.2111 53.85 14.2104 53.8962 14.2404C54.7044 14.765 55.7212 14.8306 56.9466 14.4378L57.0041 14.4253L57.0565 14.4153C57.1102 14.3953 57.1615 14.3759 57.2114 14.3578L57.2314 14.3428C57.8847 14.1011 58.4774 13.757 59.0102 13.3111C59.0501 13.2792 59.117 13.2267 59.21 13.1537C59.2887 13.09 59.3543 13.0369 59.4074 12.9938C60.0469 12.3293 60.5228 11.5804 60.8339 10.7479C61.1437 9.9147 61.2211 9.17022 61.0662 8.51443C61.0462 8.46446 61.0562 8.42324 61.0962 8.39202L61.2936 8.23213C61.3335 8.20215 61.3723 8.19465 61.4085 8.20964C61.4422 8.22463 61.4622 8.25086 61.4684 8.28959C61.6133 9.04031 61.5103 9.85974 61.1586 10.7479C60.8058 11.6372 60.2705 12.4342 59.5523 13.1387L59.5323 13.1537C59.4923 13.1849 59.4386 13.2392 59.3699 13.3161L59.3299 13.3485C59.25 13.4116 59.19 13.4591 59.1501 13.4909C58.5942 13.9356 57.9771 14.2879 57.2989 14.5477C57.2708 14.5689 57.2426 14.5814 57.2139 14.5852C57.1839 14.5883 57.1558 14.6002 57.129 14.6201C57.0909 14.6264 57.0528 14.6339 57.0141 14.6426Z" fill="white"/>
</g>
</g>
<mask id="mask11_494_17772" style="mask-type:luminance" maskUnits="userSpaceOnUse" x="4" y="75" width="107" height="7">
<path d="M110.001 75.627H4.95508V81.0631H110.001V75.627Z" fill="white"/>
</mask>
<g mask="url(#mask11_494_17772)">
<path d="M5.91376 79.5883C6.02993 79.5833 6.10488 79.5508 6.13861 79.4909C6.17358 79.4309 6.19107 79.3385 6.19107 79.2136V79.0862L6.19607 77.0151L5.77386 77.0201C5.60523 77.0201 5.48469 77.077 5.41162 77.19C5.33979 77.3018 5.30419 77.4798 5.30419 77.7246H5.1543L5.17928 76.8652H7.56011L7.58509 77.7246H7.4302C7.42645 77.5535 7.40896 77.4167 7.37774 77.3149C7.34588 77.2137 7.2928 77.1375 7.21785 77.0876C7.1429 77.0364 7.0361 77.0101 6.89807 77.0101H6.55082L6.54832 79.2361C6.54832 79.381 6.54395 79.4896 6.53583 79.5608L6.87309 79.5434V79.7232H5.91376V79.5883Z" fill="white"/>
<path d="M9.41406 79.5883C9.509 79.5852 9.57645 79.5633 9.61642 79.5234C9.65764 79.4821 9.68137 79.4334 9.68637 79.3785C9.69262 79.3223 9.69636 79.2248 9.69636 79.0862V77.3224C9.69636 77.2075 9.70011 77.1094 9.70886 77.0276L9.41406 77.0426V76.8652H10.3334V76.9976C10.2385 77.0014 10.1698 77.0239 10.1286 77.0651C10.0886 77.1051 10.0649 77.1538 10.0586 77.21C10.0536 77.265 10.0511 77.3624 10.0511 77.5023V78.1793H11.5126V77.3224C11.5126 77.2075 11.5163 77.1094 11.5251 77.0276L11.2303 77.0426V76.8652H12.1496V76.9976C12.0547 77.0014 11.986 77.0239 11.9448 77.0651C11.9048 77.1051 11.8823 77.1538 11.8773 77.21C11.8723 77.265 11.8698 77.3624 11.8698 77.5023V79.2361C11.8698 79.381 11.8655 79.4896 11.8573 79.5608L12.1496 79.5434V79.7232H11.2303V79.5883C11.3265 79.5852 11.3952 79.5633 11.4351 79.5234C11.4764 79.4821 11.5001 79.4334 11.5051 79.3785C11.5101 79.3223 11.5126 79.2248 11.5126 79.0862V78.3417L10.0511 78.3592V79.2361C10.0511 79.381 10.0467 79.4896 10.0386 79.5608L10.3334 79.5434V79.7232H9.41406V79.5883Z" fill="white"/>
<path d="M14.1113 79.5883C14.2063 79.5852 14.2737 79.5633 14.3137 79.5234C14.3549 79.4821 14.3786 79.4334 14.3836 79.3785C14.3899 79.3223 14.3936 79.2248 14.3936 79.0862V77.3224C14.3936 77.2075 14.3974 77.1094 14.4061 77.0276L14.1113 77.0426V76.8652H16.075L16.0974 77.5797H15.9625C15.9625 77.3568 15.9132 77.2044 15.8151 77.1226C15.7183 77.0395 15.5834 77.0014 15.4104 77.0076L15.0582 77.0151C14.9595 77.0189 14.8889 77.0376 14.8458 77.0726C14.8021 77.1063 14.7746 77.1538 14.7634 77.215C14.7534 77.2749 14.7484 77.3711 14.7484 77.5023V78.1543L15.5153 78.1593L15.4879 77.8071H15.6677V78.6665H15.5328C15.5328 78.5653 15.5203 78.4878 15.4954 78.4341C15.4704 78.381 15.4329 78.3461 15.3829 78.3292C15.333 78.3111 15.263 78.3017 15.1731 78.3017L15.0457 78.3067L14.7484 78.3192V79.2536C14.7484 79.3953 14.744 79.5021 14.7359 79.5733L15.5153 79.5608C15.7065 79.5577 15.8526 79.5096 15.9525 79.4159C16.0537 79.321 16.1049 79.158 16.1049 78.9263H16.2423L16.2198 79.7232H14.1113V79.5883Z" fill="white"/>
<path d="M21.3727 79.5883C21.4889 79.5833 21.5639 79.5508 21.5976 79.4909C21.6326 79.4309 21.6501 79.3385 21.6501 79.2136V79.0862L21.6551 77.0151L21.2328 77.0201C21.0642 77.0201 20.9437 77.077 20.8706 77.19C20.7988 77.3018 20.7632 77.4798 20.7632 77.7246H20.6133L20.6383 76.8652H23.0191L23.0441 77.7246H22.8892C22.8854 77.5535 22.8679 77.4167 22.8367 77.3149C22.8049 77.2137 22.7518 77.1375 22.6768 77.0876C22.6019 77.0364 22.4951 77.0101 22.3571 77.0101H22.0098L22.0073 79.2361C22.0073 79.381 22.0029 79.4896 21.9948 79.5608L22.3321 79.5434V79.7232H21.3727V79.5883Z" fill="white"/>
<path d="M24.8711 79.5886C24.966 79.5854 25.0335 79.5636 25.0735 79.5236C25.1147 79.4824 25.1384 79.4337 25.1434 79.3787C25.1496 79.3225 25.1534 79.2251 25.1534 79.0864V77.3226C25.1534 77.2077 25.1571 77.1097 25.1659 77.0278L24.8711 77.0428V76.8655C25.154 76.8592 25.3682 76.8555 25.5131 76.8555C25.6431 76.8555 25.7405 76.8573 25.8054 76.8605C26.1902 76.8655 26.4712 76.9304 26.6498 77.0553C26.8278 77.179 26.9172 77.3576 26.9172 77.5925C26.9203 77.7792 26.8647 77.9472 26.7498 78.0971C26.6349 78.247 26.4356 78.3513 26.1527 78.4094C26.1989 78.4444 26.2414 78.4868 26.2801 78.5368C26.3182 78.5855 26.37 78.6611 26.435 78.7641L26.7123 79.2013C26.7723 79.2963 26.8222 79.3687 26.8622 79.4187C26.9022 79.4686 26.9496 79.5099 27.0046 79.5411C27.0608 79.5729 27.1301 79.5886 27.212 79.5886V79.7235H26.6973C26.6236 79.6604 26.5612 79.5954 26.5099 79.5286C26.46 79.4624 26.4006 79.3762 26.3326 79.2713L26.0603 78.8341L26.0053 78.7466C25.9616 78.6736 25.9235 78.6142 25.8904 78.5693C25.8585 78.523 25.8236 78.4812 25.7855 78.4444C25.7605 78.4481 25.7217 78.4494 25.6705 78.4494C25.5968 78.4494 25.5431 78.4481 25.5081 78.4444V79.2363C25.5081 79.3812 25.5038 79.4899 25.4957 79.5611L25.7904 79.5436V79.7235H24.8711V79.5886ZM25.688 78.2945C26.2426 78.2945 26.5199 78.0759 26.5199 77.6374C26.5199 77.4294 26.46 77.2739 26.3401 77.1702C26.2214 77.0672 26.0384 77.0154 25.7904 77.0154C25.6955 77.0154 25.6268 77.0347 25.5856 77.0728C25.5456 77.1115 25.5219 77.1578 25.5156 77.2127C25.5106 77.2664 25.5081 77.3626 25.5081 77.5025V78.2845C25.5893 78.2913 25.6493 78.2945 25.688 78.2945Z" fill="white"/>
<path d="M30.2532 79.7882C29.9647 79.7882 29.7367 79.737 29.5687 79.6358C29.4019 79.5346 29.282 79.3778 29.2089 79.1661C29.1371 78.955 29.1015 78.6758 29.1015 78.3292V77.5023C29.1015 77.3274 29.1065 77.1694 29.1165 77.0276L28.8242 77.0401V76.8652H29.7386V76.9976C29.6187 76.9976 29.5418 77.0295 29.5087 77.0926C29.4769 77.1563 29.4613 77.2325 29.4613 77.3224V78.3517C29.4613 78.5884 29.4819 78.7933 29.5237 78.9663C29.5649 79.1399 29.6474 79.281 29.7711 79.391C29.896 79.5009 30.074 79.5558 30.3057 79.5558C30.5886 79.5558 30.7985 79.4584 30.9352 79.2636C31.0733 79.0687 31.1457 78.8039 31.1526 78.4691L31.1651 77.3224C31.1651 77.2075 31.1682 77.1094 31.1751 77.0276L30.8853 77.0426V76.8652H31.6447V76.9976C31.5479 77.0014 31.4786 77.0239 31.4374 77.0651C31.3974 77.1051 31.3737 77.1538 31.3674 77.21C31.3624 77.265 31.3599 77.3624 31.3599 77.5023L31.3524 78.4491C31.3487 78.8438 31.2606 79.1661 31.0876 79.4159C30.914 79.6645 30.6361 79.7882 30.2532 79.7882Z" fill="white"/>
<path d="M34.4619 79.7883C34.3333 79.7883 34.2046 79.7708 34.0747 79.7358C33.9448 79.7008 33.8305 79.6496 33.7324 79.5809L33.7549 79.7558H33.5426L33.5176 78.8864H33.6775C33.6906 79.12 33.7705 79.2998 33.9173 79.426C34.0634 79.5528 34.2502 79.6159 34.4769 79.6159C34.643 79.6159 34.7823 79.5709 34.8941 79.481C35.0072 79.3898 35.064 79.2649 35.064 79.1062C35.064 78.9901 35.0321 78.8901 34.9691 78.8064C34.9054 78.7234 34.8267 78.654 34.7317 78.5991C34.638 78.5429 34.5106 78.4779 34.3495 78.4042C34.1677 78.318 34.0228 78.2418 33.9148 78.1769C33.808 78.1107 33.7162 78.0239 33.64 77.9171C33.5632 77.809 33.5251 77.676 33.5251 77.5173C33.5251 77.4093 33.5501 77.3012 33.6 77.1926C33.6512 77.0827 33.7387 76.9896 33.8623 76.9128C33.9854 76.8366 34.1496 76.7979 34.3545 76.7979C34.4775 76.7979 34.6006 76.8141 34.7242 76.8453C34.8473 76.8772 34.9603 76.9315 35.064 77.0077L35.049 76.8303H35.2564V77.7297H35.109C35.0952 77.5148 35.0271 77.3337 34.9041 77.1851C34.7804 77.0371 34.6068 76.9627 34.382 76.9627C34.2183 76.9627 34.0903 77.009 33.9972 77.1001C33.9054 77.1901 33.8598 77.3037 33.8598 77.4399C33.8598 77.5486 33.8904 77.6423 33.9523 77.7222C34.0154 77.8009 34.0922 77.8659 34.1821 77.9171C34.272 77.9689 34.3982 78.0332 34.5618 78.1094C34.748 78.1944 34.8972 78.2712 35.009 78.3393C35.1221 78.408 35.2176 78.4967 35.2963 78.6066C35.3763 78.7165 35.4162 78.8527 35.4162 79.0138C35.4162 79.1656 35.3788 79.3005 35.3038 79.4185C35.2289 79.5353 35.119 79.6259 34.9741 79.6908C34.8304 79.7558 34.6599 79.7883 34.4619 79.7883Z" fill="white"/>
<path d="M37.9548 79.5883C38.0709 79.5833 38.1459 79.5508 38.1796 79.4909C38.2146 79.4309 38.2321 79.3385 38.2321 79.2136V79.0862L38.2371 77.0151L37.8149 77.0201C37.6462 77.0201 37.5257 77.077 37.4526 77.19C37.3808 77.3018 37.3452 77.4798 37.3452 77.7246H37.1953L37.2203 76.8652H39.6011L39.6261 77.7246H39.4712C39.4675 77.5535 39.45 77.4167 39.4188 77.3149C39.3869 77.2137 39.3338 77.1375 39.2589 77.0876C39.1839 77.0364 39.0771 77.0101 38.9391 77.0101H38.5918L38.5893 79.2361C38.5893 79.381 38.585 79.4896 38.5768 79.5608L38.9141 79.5434V79.7232H37.9548V79.5883Z" fill="white"/>
<path d="M44.041 79.5883C44.1359 79.5852 44.2034 79.5633 44.2434 79.5234C44.2846 79.4821 44.3083 79.4334 44.3133 79.3785C44.3196 79.3223 44.3233 79.2248 44.3233 79.0862V77.3224C44.3233 77.2075 44.3271 77.1094 44.3358 77.0276L44.041 77.0426V76.8652H44.9604V76.9976C44.8654 77.0014 44.7967 77.0239 44.7555 77.0651C44.7155 77.1051 44.6918 77.1538 44.6856 77.21C44.6806 77.265 44.6781 77.3624 44.6781 77.5023V79.2536C44.6781 79.3953 44.6737 79.5021 44.6656 79.5733L45.43 79.5608C45.603 79.5577 45.733 79.5028 45.8198 79.396C45.9078 79.2879 45.9522 79.1155 45.9522 78.8788H46.0921L46.0671 79.7232H44.041V79.5883Z" fill="white"/>
<path d="M47.7324 79.5882C47.8005 79.5882 47.8548 79.5726 47.8948 79.5407C47.936 79.5095 47.9698 79.4683 47.9947 79.4183C48.021 79.3683 48.0522 79.2928 48.0872 79.191L48.1296 79.0785L48.9716 76.7852H49.069L49.9783 79.111C50.0083 79.1847 50.0339 79.2647 50.0558 79.3509C50.0789 79.4358 50.0889 79.5057 50.0858 79.5607L50.3631 79.5432V79.7231H49.4287V79.5882C49.5886 79.5851 49.6686 79.5201 49.6686 79.3933C49.6686 79.3421 49.6548 79.2778 49.6286 79.201L49.4862 78.8162L48.4244 78.8412C48.3826 78.953 48.3345 79.0985 48.2795 79.2784C48.2527 79.3683 48.2183 79.4627 48.1771 79.5607L48.4969 79.5432V79.7231H47.7324V79.5882ZM49.4287 78.6663L49.1389 77.8844L48.9541 77.3822H48.9466L48.7742 77.8444L48.5543 78.464L48.4844 78.6663H49.4287Z" fill="white"/>
<path d="M52.5645 79.5883C52.6807 79.5833 52.7556 79.5508 52.7894 79.4909C52.8243 79.4309 52.8418 79.3385 52.8418 79.2136V79.0862L52.8443 78.6215L52.1348 77.4973C52.0099 77.3043 51.9362 77.15 51.915 77.0351L51.6602 77.0426V76.8652H52.7144V76.9976C52.5008 76.9976 52.3946 77.0576 52.3946 77.1775C52.3946 77.2493 52.4284 77.3387 52.4971 77.4448L52.6245 77.6447C52.7994 77.9282 52.9505 78.1581 53.0792 78.3342H53.0867C53.1816 78.1462 53.3271 77.8689 53.5238 77.5023L53.6088 77.3424C53.6869 77.1925 53.7524 77.0895 53.8062 77.0326L53.4814 77.0426V76.8652H54.3158V76.9976C54.1871 77.0064 54.0797 77.0501 53.9935 77.13C53.9086 77.2087 53.8161 77.3399 53.7162 77.5248L53.2016 78.4991C53.1978 78.6327 53.1953 78.7739 53.1941 78.9238C53.1922 79.0724 53.1928 79.1761 53.1966 79.2361C53.1966 79.381 53.1922 79.4896 53.1841 79.5608L53.5238 79.5434V79.7232H52.5645V79.5883Z" fill="white"/>
<path d="M56.0117 79.5883C56.1067 79.5852 56.1741 79.5633 56.2141 79.5234C56.2553 79.4821 56.279 79.4334 56.284 79.3785C56.2903 79.3223 56.294 79.2248 56.294 79.0862V77.3224C56.294 77.2075 56.2978 77.1094 56.3065 77.0276L56.0117 77.0426V76.8652H57.9753L57.9978 77.5797H57.8629C57.8629 77.3568 57.8136 77.2044 57.7155 77.1226C57.6187 77.0395 57.4838 77.0014 57.3108 77.0076L56.9586 77.0151C56.8599 77.0189 56.7893 77.0376 56.7462 77.0726C56.7025 77.1063 56.675 77.1538 56.6638 77.215C56.6538 77.2749 56.6488 77.3711 56.6488 77.5023V78.1543L57.4157 78.1593L57.3883 77.8071H57.5681V78.6665H57.4332C57.4332 78.5653 57.4207 78.4878 57.3957 78.4341C57.3708 78.381 57.3333 78.3461 57.2833 78.3292C57.2334 78.3111 57.1634 78.3017 57.0735 78.3017L56.9461 78.3067L56.6488 78.3192V79.2536C56.6488 79.3953 56.6444 79.5021 56.6363 79.5733L57.4157 79.5608C57.6068 79.5577 57.753 79.5096 57.8529 79.4159C57.9541 79.321 58.0053 79.158 58.0053 78.9263H58.1427L58.1202 79.7232H56.0117V79.5883Z" fill="white"/>
<path d="M60.0625 79.5886C60.1574 79.5854 60.2249 79.5636 60.2649 79.5236C60.3061 79.4824 60.3298 79.4337 60.3348 79.3787C60.3411 79.3225 60.3448 79.2251 60.3448 79.0864V77.3226C60.3448 77.2077 60.3485 77.1097 60.3573 77.0278L60.0625 77.0428V76.8655C60.3454 76.8592 60.5597 76.8555 60.7045 76.8555C60.8345 76.8555 60.9319 76.8573 60.9968 76.8605C61.3816 76.8655 61.6626 76.9304 61.8413 77.0553C62.0193 77.179 62.1086 77.3576 62.1086 77.5925C62.1117 77.7792 62.0561 77.9472 61.9412 78.0971C61.8263 78.247 61.627 78.3513 61.3441 78.4094C61.3903 78.4444 61.4328 78.4868 61.4715 78.5368C61.5096 78.5855 61.5614 78.6611 61.6264 78.7641L61.9037 79.2013C61.9637 79.2963 62.0136 79.3687 62.0536 79.4187C62.0936 79.4686 62.141 79.5099 62.196 79.5411C62.2522 79.5729 62.3215 79.5886 62.4034 79.5886V79.7235H61.8887C61.815 79.6604 61.7526 79.5954 61.7013 79.5286C61.6514 79.4624 61.5921 79.3762 61.524 79.2713L61.2517 78.8341L61.1967 78.7466C61.153 78.6736 61.1149 78.6142 61.0818 78.5693C61.0499 78.523 61.015 78.4812 60.9769 78.4444C60.9519 78.4481 60.9132 78.4494 60.8619 78.4494C60.7882 78.4494 60.7345 78.4481 60.6996 78.4444V79.2363C60.6996 79.3812 60.6952 79.4899 60.6871 79.5611L60.9819 79.5436V79.7235H60.0625V79.5886ZM60.8794 78.2945C61.434 78.2945 61.7113 78.0759 61.7113 77.6374C61.7113 77.4294 61.6514 77.2739 61.5315 77.1702C61.4128 77.0672 61.2298 77.0154 60.9819 77.0154C60.8869 77.0154 60.8182 77.0347 60.777 77.0728C60.737 77.1115 60.7133 77.1578 60.707 77.2127C60.7021 77.2664 60.6996 77.3626 60.6996 77.5025V78.2845C60.7807 78.2913 60.8407 78.2945 60.8794 78.2945Z" fill="white"/>
<path d="M66.7227 79.5883C66.8176 79.5852 66.885 79.5633 66.925 79.5234C66.9662 79.4821 66.99 79.4334 66.995 79.3785C67.0012 79.3223 67.005 79.2248 67.005 79.0862V77.3224C67.005 77.2075 67.0087 77.1094 67.0174 77.0276L66.7227 77.0426V76.8652H68.6188L68.6388 77.5797H68.5039C68.5039 77.3568 68.4527 77.2044 68.3515 77.1226C68.2516 77.0395 68.1142 77.0014 67.9393 77.0076L67.642 77.0151C67.5471 77.0189 67.4796 77.0414 67.4397 77.0826C67.3997 77.1226 67.3759 77.1719 67.3697 77.23C67.3628 77.2887 67.3597 77.3842 67.3597 77.5173V78.2193L68.0692 78.2243L68.0417 77.8695H68.2216V78.7314H68.0917C68.0917 78.6284 68.0798 78.5509 68.0567 78.4991C68.033 78.446 67.9968 78.4104 67.9468 78.3917C67.8981 78.3736 67.8306 78.3642 67.7444 78.3642C67.6845 78.3642 67.6376 78.3654 67.6045 78.3667L67.3597 78.3792V79.2361C67.3597 79.381 67.3553 79.4896 67.3472 79.5608L67.7644 79.5434V79.7232H66.7227V79.5883Z" fill="white"/>
<path d="M71.8602 79.7883C71.5336 79.7883 71.2613 79.7171 71.0433 79.5734C70.8247 79.4285 70.6642 79.243 70.5611 79.0163C70.4575 78.7883 70.4062 78.5479 70.4062 78.2943C70.4062 78.0513 70.4593 77.8159 70.5661 77.5873C70.6742 77.3593 70.8347 77.1713 71.0483 77.0227C71.2631 76.8728 71.523 76.7979 71.8278 76.7979C72.1407 76.7979 72.4061 76.8728 72.6247 77.0227C72.8445 77.1713 73.0082 77.3593 73.1168 77.5873C73.2268 77.8159 73.2817 78.0513 73.2817 78.2943C73.2817 78.5341 73.2274 78.769 73.1193 78.9988C73.0125 79.2286 72.852 79.4179 72.6372 79.5659C72.4236 79.7146 72.165 79.7883 71.8602 79.7883ZM71.8702 79.6209C72.0813 79.6209 72.2631 79.5609 72.4148 79.441C72.566 79.3198 72.6803 79.1637 72.7571 78.9738C72.8352 78.7827 72.8745 78.5816 72.8745 78.3717C72.8745 78.1407 72.832 77.9164 72.7471 77.6997C72.6622 77.4836 72.5385 77.3069 72.3774 77.1701C72.2175 77.0321 72.0301 76.9627 71.8153 76.9627C71.6035 76.9627 71.4212 77.0239 71.2681 77.1451C71.1164 77.265 71.0015 77.4218 70.9234 77.6148C70.8447 77.8084 70.806 78.0095 70.806 78.2194C70.806 78.4342 70.8447 78.6503 70.9234 78.8664C71.0033 79.0831 71.1232 79.263 71.2831 79.406C71.4443 79.5497 71.6404 79.6209 71.8702 79.6209Z" fill="white"/>
<path d="M75.1602 79.5886C75.2551 79.5854 75.3225 79.5636 75.3625 79.5236C75.4037 79.4824 75.4275 79.4337 75.4325 79.3787C75.4387 79.3225 75.4425 79.2251 75.4425 79.0864V77.3226C75.4425 77.2077 75.4462 77.1097 75.4549 77.0278L75.1602 77.0428V76.8655C75.4431 76.8592 75.6573 76.8555 75.8022 76.8555C75.9321 76.8555 76.0295 76.8573 76.0945 76.8605C76.4792 76.8655 76.7603 76.9304 76.9389 77.0553C77.1169 77.179 77.2062 77.3576 77.2062 77.5925C77.2093 77.7792 77.1538 77.9472 77.0388 78.0971C76.9239 78.247 76.7247 78.3513 76.4418 78.4094C76.488 78.4444 76.5304 78.4868 76.5692 78.5368C76.6073 78.5855 76.6591 78.6611 76.7241 78.7641L77.0014 79.2013C77.0613 79.2963 77.1113 79.3687 77.1513 79.4187C77.1912 79.4686 77.2387 79.5099 77.2937 79.5411C77.3499 79.5729 77.4192 79.5886 77.501 79.5886V79.7235H76.9864C76.9127 79.6604 76.8502 79.5954 76.799 79.5286C76.749 79.4624 76.6897 79.3762 76.6216 79.2713L76.3493 78.8341L76.2944 78.7466C76.2506 78.6736 76.2125 78.6142 76.1794 78.5693C76.1476 78.523 76.1126 78.4812 76.0745 78.4444C76.0495 78.4481 76.0108 78.4494 75.9596 78.4494C75.8859 78.4494 75.8322 78.4481 75.7972 78.4444V79.2363C75.7972 79.3812 75.7928 79.4899 75.7847 79.5611L76.0795 79.5436V79.7235H75.1602V79.5886ZM75.9771 78.2945C76.5317 78.2945 76.809 78.0759 76.809 77.6374C76.809 77.4294 76.749 77.2739 76.6291 77.1702C76.5105 77.0672 76.3275 77.0154 76.0795 77.0154C75.9846 77.0154 75.9159 77.0347 75.8747 77.0728C75.8347 77.1115 75.8109 77.1578 75.8047 77.2127C75.7997 77.2664 75.7972 77.3626 75.7972 77.5025V78.2845C75.8784 78.2913 75.9384 78.2945 75.9771 78.2945Z" fill="white"/>
<path d="M81.8203 79.5883C81.9152 79.5852 81.9827 79.5633 82.0227 79.5234C82.0639 79.4821 82.0876 79.4334 82.0926 79.3785C82.0989 79.3223 82.1026 79.2248 82.1026 79.0862V77.3224C82.1026 77.2075 82.1064 77.1094 82.1151 77.0276L81.8203 77.0426V76.8652H83.7165L83.7365 77.5797H83.6016C83.6016 77.3568 83.5503 77.2044 83.4492 77.1226C83.3492 77.0395 83.2118 77.0014 83.037 77.0076L82.7397 77.0151C82.6447 77.0189 82.5773 77.0414 82.5373 77.0826C82.4973 77.1226 82.4736 77.1719 82.4674 77.23C82.4605 77.2887 82.4574 77.3842 82.4574 77.5173V78.2193L83.1669 78.2243L83.1394 77.8695H83.3193V78.7314H83.1894C83.1894 78.6284 83.1775 78.5509 83.1544 78.4991C83.1306 78.446 83.0944 78.4104 83.0445 78.3917C82.9957 78.3736 82.9283 78.3642 82.8421 78.3642C82.7821 78.3642 82.7353 78.3654 82.7022 78.3667L82.4574 78.3792V79.2361C82.4574 79.381 82.453 79.4896 82.4449 79.5608L82.8621 79.5434V79.7232H81.8203V79.5883Z" fill="white"/>
<path d="M85.1641 79.5882C85.2321 79.5882 85.2865 79.5726 85.3264 79.5407C85.3677 79.5095 85.4014 79.4683 85.4264 79.4183C85.4526 79.3683 85.4838 79.2928 85.5188 79.191L85.5613 79.0785L86.4032 76.7852H86.5006L87.41 79.111C87.44 79.1847 87.4656 79.2647 87.4874 79.3509C87.5105 79.4358 87.5205 79.5057 87.5174 79.5607L87.7947 79.5432V79.7231H86.8604V79.5882C87.0203 79.5851 87.1002 79.5201 87.1002 79.3933C87.1002 79.3421 87.0865 79.2778 87.0602 79.201L86.9178 78.8162L85.8561 78.8412C85.8142 78.953 85.7661 79.0985 85.7112 79.2784C85.6843 79.3683 85.65 79.4627 85.6088 79.5607L85.9285 79.5432V79.7231H85.1641V79.5882ZM86.8604 78.6663L86.5706 77.8844L86.3857 77.3822H86.3782L86.2058 77.8444L85.986 78.464L85.916 78.6663H86.8604Z" fill="white"/>
<path d="M90.4385 79.7883C90.3098 79.7883 90.1812 79.7708 90.0512 79.7358C89.9213 79.7008 89.807 79.6496 89.709 79.5809L89.7315 79.7558H89.5191L89.4941 78.8864H89.654C89.6671 79.12 89.7471 79.2998 89.8939 79.426C90.04 79.5528 90.2268 79.6159 90.4535 79.6159C90.6196 79.6159 90.7589 79.5709 90.8707 79.481C90.9837 79.3898 91.0406 79.2649 91.0406 79.1062C91.0406 78.9901 91.0087 78.8901 90.9456 78.8064C90.8819 78.7234 90.8032 78.654 90.7083 78.5991C90.6146 78.5429 90.4872 78.4779 90.3261 78.4042C90.1443 78.318 89.9994 78.2418 89.8914 78.1769C89.7846 78.1107 89.6928 78.0239 89.6166 77.9171C89.5397 77.809 89.5016 77.676 89.5016 77.5173C89.5016 77.4093 89.5266 77.3012 89.5766 77.1926C89.6278 77.0827 89.7152 76.9896 89.8389 76.9128C89.9619 76.8366 90.1262 76.7979 90.3311 76.7979C90.4541 76.7979 90.5771 76.8141 90.7008 76.8453C90.8238 76.8772 90.9369 76.9315 91.0406 77.0077L91.0256 76.8303H91.2329V77.7297H91.0855C91.0718 77.5148 91.0037 77.3337 90.8807 77.1851C90.757 77.0371 90.5834 76.9627 90.3585 76.9627C90.1949 76.9627 90.0669 77.009 89.9738 77.1001C89.882 77.1901 89.8364 77.3037 89.8364 77.4399C89.8364 77.5486 89.867 77.6423 89.9288 77.7222C89.9919 77.8009 90.0687 77.8659 90.1587 77.9171C90.2486 77.9689 90.3748 78.0332 90.5384 78.1094C90.7245 78.1944 90.8738 78.2712 90.9856 78.3393C91.0986 78.408 91.1942 78.4967 91.2729 78.6066C91.3528 78.7165 91.3928 78.8527 91.3928 79.0138C91.3928 79.1656 91.3553 79.3005 91.2804 79.4185C91.2054 79.5353 91.0955 79.6259 90.9506 79.6908C90.807 79.7558 90.6365 79.7883 90.4385 79.7883Z" fill="white"/>
<path d="M93.3086 79.5883C93.4035 79.5852 93.471 79.5633 93.511 79.5234C93.5522 79.4821 93.5759 79.4334 93.5809 79.3785C93.5871 79.3223 93.5909 79.2248 93.5909 79.0862V77.3224C93.5909 77.2075 93.5946 77.1094 93.6034 77.0276L93.3086 77.0426V76.8652H94.2279V76.9976C94.133 77.0014 94.0643 77.0239 94.0231 77.0651C93.9831 77.1051 93.9594 77.1538 93.9531 77.21C93.9481 77.265 93.9456 77.3624 93.9456 77.5023V78.1793H95.4071V77.3224C95.4071 77.2075 95.4109 77.1094 95.4196 77.0276L95.1248 77.0426V76.8652H96.0442V76.9976C95.9492 77.0014 95.8805 77.0239 95.8393 77.0651C95.7993 77.1051 95.7769 77.1538 95.7719 77.21C95.7669 77.265 95.7644 77.3624 95.7644 77.5023V79.2361C95.7644 79.381 95.76 79.4896 95.7519 79.5608L96.0442 79.5434V79.7232H95.1248V79.5883C95.221 79.5852 95.2897 79.5633 95.3297 79.5234C95.3709 79.4821 95.3946 79.4334 95.3996 79.3785C95.4046 79.3223 95.4071 79.2248 95.4071 79.0862V78.3417L93.9456 78.3592V79.2361C93.9456 79.381 93.9413 79.4896 93.9332 79.5608L94.2279 79.5434V79.7232H93.3086V79.5883Z" fill="white"/>
<path d="M98.0059 79.5883C98.1008 79.5852 98.1682 79.5633 98.2082 79.5234C98.2494 79.4821 98.2732 79.4334 98.2782 79.3785C98.2844 79.3223 98.2882 79.2248 98.2882 79.0862V77.3224C98.2882 77.2075 98.2919 77.1094 98.3007 77.0276L98.0059 77.0426V76.8652H98.9252V76.9976C98.8303 77.0014 98.7616 77.0239 98.7204 77.0651C98.6804 77.1051 98.6567 77.1538 98.6504 77.21C98.6454 77.265 98.6429 77.3624 98.6429 77.5023V79.2361C98.6429 79.381 98.6385 79.4896 98.6304 79.5608L98.9252 79.5434V79.7232H98.0059V79.5883Z" fill="white"/>
<path d="M102.265 79.7883C101.938 79.7883 101.666 79.7171 101.448 79.5734C101.229 79.4285 101.068 79.243 100.965 79.0163C100.862 78.7883 100.811 78.5479 100.811 78.2943C100.811 78.0513 100.864 77.8159 100.97 77.5873C101.078 77.3593 101.239 77.1713 101.453 77.0227C101.667 76.8728 101.927 76.7979 102.232 76.7979C102.545 76.7979 102.81 76.8728 103.029 77.0227C103.249 77.1713 103.412 77.3593 103.521 77.5873C103.631 77.8159 103.686 78.0513 103.686 78.2943C103.686 78.5341 103.632 78.769 103.524 78.9988C103.417 79.2286 103.256 79.4179 103.041 79.5659C102.828 79.7146 102.569 79.7883 102.265 79.7883ZM102.275 79.6209C102.486 79.6209 102.667 79.5609 102.819 79.441C102.97 79.3198 103.085 79.1637 103.161 78.9738C103.239 78.7827 103.279 78.5816 103.279 78.3717C103.279 78.1407 103.236 77.9164 103.151 77.6997C103.066 77.4836 102.943 77.3069 102.782 77.1701C102.622 77.0321 102.434 76.9627 102.22 76.9627C102.008 76.9627 101.825 77.0239 101.672 77.1451C101.521 77.265 101.406 77.4218 101.328 77.6148C101.249 77.8084 101.21 78.0095 101.21 78.2194C101.21 78.4342 101.249 78.6503 101.328 78.8664C101.408 79.0831 101.528 79.263 101.687 79.406C101.849 79.5497 102.045 79.6209 102.275 79.6209Z" fill="white"/>
<path d="M106.027 77.4074H106.022L106.034 79.1561C106.034 79.3379 106.032 79.4728 106.027 79.5608L106.319 79.5434V79.7232H105.572V79.5883C105.682 79.5883 105.755 79.5577 105.79 79.4959C105.825 79.4328 105.842 79.356 105.842 79.266L105.847 77.0276L105.572 77.0426V76.8652H106.059L107.798 79.1911H107.803L107.808 77.3224C107.808 77.2075 107.811 77.1094 107.818 77.0276L107.526 77.0426V76.8652H108.278V76.9976C108.196 77.0014 108.135 77.017 108.095 77.0451C108.056 77.0738 108.029 77.1126 108.018 77.1625C108.008 77.2112 108.003 77.2762 108.003 77.3574V77.5023L107.996 79.7882H107.798L106.027 77.4074Z" fill="white"/>
</g>
</g>
</svg>
