<svg width="122" height="141" viewBox="0 0 122 141" fill="none" xmlns="http://www.w3.org/2000/svg">
<mask id="mask0_839_26576" style="mask-type:luminance" maskUnits="userSpaceOnUse" x="0" y="0" width="122" height="141">
<path d="M122 0H0V140.59H122V0Z" fill="white"/>
</mask>
<g mask="url(#mask0_839_26576)">
<mask id="mask1_839_26576" style="mask-type:luminance" maskUnits="userSpaceOnUse" x="0" y="24" width="95" height="117">
<path d="M0.121094 24.8835H94.1214V140.317H0.121094V24.8835Z" fill="white"/>
</mask>
<g mask="url(#mask1_839_26576)">
<mask id="mask2_839_26576" style="mask-type:luminance" maskUnits="userSpaceOnUse" x="0" y="24" width="95" height="117">
<path d="M94.1222 24.8835H0V140.59H94.1222V24.8835Z" fill="white"/>
</mask>
<g mask="url(#mask2_839_26576)">
<path d="M29.9653 85.9367C30.0807 85.9926 30.1724 86.0704 30.2414 86.17C30.9001 87.5053 31.8306 88.7166 33.0317 89.8053C34.2339 90.8939 35.7703 91.6023 37.6421 91.9291C39.5138 92.2572 41.8352 91.8562 44.6072 90.7287C46.7572 89.8417 48.7259 88.5939 50.5114 86.9865C50.6861 86.8285 50.8877 86.6074 51.1152 86.3255C51.4193 86.0509 51.6371 85.8529 51.7665 85.7326C53.7644 83.6173 55.2566 81.293 56.2431 78.7585C57.2286 76.2216 57.6631 73.7381 57.5456 71.3082C57.4302 68.8782 56.7111 66.73 55.3892 64.8638C54.1698 63.147 52.5945 61.932 50.6624 61.2188C48.7303 60.5032 46.6138 60.3367 44.314 60.7182L20.8912 64.6694C18.2723 65.1007 15.8528 64.9075 13.6328 64.0911C11.4107 63.2746 9.60361 61.8834 8.21166 59.9163C8.17716 59.8714 8.14697 59.779 8.12109 59.6393C8.12972 59.5494 8.17932 59.4643 8.26773 59.3866L9.31142 58.4437C9.48393 58.2882 9.63919 58.3077 9.7772 58.5021C12.3455 61.4254 15.828 62.5152 20.2271 61.7728L43.6498 57.8119C46.2375 57.3393 48.6494 57.524 50.8867 58.366C53.1228 59.2092 54.9374 60.6101 56.3294 62.5699C57.8238 64.6828 58.6507 67.1358 58.8092 69.9279C58.9699 72.7175 58.4815 75.5497 57.3429 78.4232C56.2043 81.2979 54.4846 83.9296 52.1848 86.3207C52.0899 86.4896 51.9099 86.6925 51.6457 86.9282L51.5206 87.0399C51.3018 87.238 51.1044 87.4166 50.9298 87.5745C49.0979 89.2209 47.0634 90.5282 44.8272 91.4966C41.5063 92.9546 38.3321 93.3604 35.3046 92.7116C32.2748 92.0603 29.8726 90.4833 28.0979 87.9779C27.9599 87.7835 27.9793 87.6074 28.154 87.4482L29.7195 86.0388C29.8058 85.9586 29.8877 85.9246 29.9653 85.9367ZM60.1505 86.3887C64.3512 84.8627 68.1345 84.9186 71.5018 86.5539C71.616 86.6098 71.685 86.707 71.7088 86.8455C71.74 86.9816 71.7109 87.091 71.6225 87.1712L70.8419 87.8759C70.7093 87.9925 70.568 87.9962 70.4192 87.8856C67.7561 85.9416 64.4083 85.6974 60.3748 87.1517L60.1936 87.2003L60.0082 87.2489C59.8411 87.3145 59.6761 87.3801 59.5122 87.4482L59.4475 87.5065C57.2933 88.4007 55.3418 89.6765 53.5908 91.3313C53.4614 91.448 53.2425 91.6448 52.9352 91.9194C52.6765 92.1527 52.4587 92.3495 52.284 92.5074C50.1761 94.9666 48.6106 97.7417 47.5874 100.833C46.5631 103.924 46.3086 106.686 46.824 109.119C46.8865 109.307 46.852 109.462 46.7205 109.581L46.0693 110.169C45.9367 110.285 45.8148 110.313 45.7027 110.251C45.5873 110.193 45.5183 110.096 45.4957 109.96C45.0148 107.17 45.3555 104.128 46.5178 100.833C47.679 97.5351 49.4397 94.5827 51.801 91.9777L51.8657 91.9194C51.995 91.8027 52.1762 91.6023 52.4091 91.3167L52.5341 91.2001C52.7983 90.9644 52.9956 90.787 53.125 90.6704C54.9558 89.0216 56.9903 87.7131 59.2276 86.7435C59.316 86.6657 59.4098 86.622 59.5079 86.6123C59.6082 86.6001 59.702 86.5539 59.7882 86.4762C59.909 86.447 60.0298 86.4179 60.1505 86.3887Z" fill="black"/>
</g>
</g>
<mask id="mask3_839_26576" style="mask-type:luminance" maskUnits="userSpaceOnUse" x="27" y="0" width="95" height="116">
<path d="M27.8789 0.273926H121.879V115.707H27.8789V0.273926Z" fill="white"/>
</mask>
<g mask="url(#mask3_839_26576)">
<mask id="mask4_839_26576" style="mask-type:luminance" maskUnits="userSpaceOnUse" x="27" y="0" width="95" height="116">
<path d="M122.001 0.000305176H27.8789V115.707H122.001V0.000305176Z" fill="white"/>
</mask>
<g mask="url(#mask4_839_26576)">
<path d="M92.029 54.6513C91.9137 54.5954 91.822 54.5176 91.753 54.418C91.0942 53.0827 90.1637 51.8713 88.9626 50.7827C87.7605 49.6941 86.224 48.9857 84.3523 48.6589C82.4805 48.3308 80.1592 48.7318 77.3871 49.8593C75.2372 50.7462 73.2684 51.994 71.4829 53.6015C71.3083 53.7594 71.1066 53.9806 70.8791 54.2625C70.5751 54.537 70.3573 54.7351 70.2279 54.8554C68.23 56.9707 66.7378 59.295 65.7512 61.8295C64.7658 64.3664 64.3313 66.8498 64.4488 69.2798C64.5641 71.7098 65.2833 73.8579 66.6052 75.7242C67.8246 77.441 69.3999 78.656 71.332 79.3692C73.2641 80.0848 75.3806 80.2513 77.6804 79.8698L101.103 75.9186C103.722 75.4873 106.142 75.6804 108.362 76.4969C110.584 77.3134 112.391 78.7046 113.783 80.6717C113.817 80.7166 113.847 80.8089 113.873 80.9487C113.865 81.0386 113.815 81.1236 113.727 81.2014L112.683 82.1442C112.51 82.2998 112.355 82.2803 112.217 82.0859C109.649 79.1626 106.166 78.0728 101.767 78.8151L78.3446 82.776C75.7569 83.2487 73.345 83.064 71.1077 82.222C68.8715 81.3788 67.0569 79.9779 65.665 78.0181C64.1706 75.9052 63.3436 73.4521 63.1851 70.6601C63.0245 67.8704 63.5129 65.0383 64.6515 62.1648C65.7901 59.2901 67.5098 56.6584 69.8096 54.2673C69.9045 54.0984 70.0845 53.8955 70.3487 53.6598L70.4737 53.548C70.6926 53.35 70.8899 53.1714 71.0646 53.0134C72.8964 51.3671 74.931 50.0598 77.1672 49.0914C80.488 47.6334 83.6622 47.2276 86.6898 47.8764C89.7195 48.5277 92.1218 50.1047 93.8965 52.6101C94.0345 52.8045 94.0151 52.9806 93.8404 53.1398L92.2749 54.5492C92.1886 54.6294 92.1067 54.6634 92.029 54.6513ZM61.8439 54.1993C57.6432 55.7253 53.8598 55.6694 50.4926 54.034C50.3783 53.9781 50.3093 53.8809 50.2856 53.7424C50.2543 53.6064 50.2834 53.497 50.3719 53.4168L51.1525 52.7121C51.2851 52.5955 51.4263 52.5918 51.5751 52.7024C54.2383 54.6464 57.5861 54.8906 61.6196 53.4363L61.8007 53.3877L61.9862 53.3391C62.1533 53.2734 62.3183 53.2078 62.4822 53.1398L62.5468 53.0815C64.7011 52.1872 66.6526 50.9115 68.4036 49.2567C68.533 49.14 68.7519 48.9432 69.0591 48.6686C69.3179 48.4353 69.5357 48.2385 69.7104 48.0805C71.8182 45.6214 73.3838 42.8463 74.407 39.7554C75.4313 36.6644 75.6857 33.9015 75.1704 31.4691C75.1078 31.2808 75.1423 31.1265 75.2739 31.0074L75.9251 30.4193C76.0577 30.3027 76.1796 30.2747 76.2917 30.3367C76.407 30.395 76.4761 30.4922 76.4987 30.6283C76.9796 33.4179 76.6389 36.4603 75.4766 39.7554C74.3153 43.0529 72.5547 46.0053 70.1934 48.6103L70.1287 48.6686C69.9993 48.7852 69.8182 48.9857 69.5853 49.2712L69.4602 49.3879C69.1961 49.6236 68.9988 49.801 68.8694 49.9176C67.0386 51.5664 65.0041 52.8749 62.7668 53.8445C62.6784 53.9223 62.5846 53.966 62.4865 53.9757C62.3862 53.9879 62.2924 54.034 62.2061 54.1118C62.0854 54.141 61.9646 54.1701 61.8439 54.1993Z" fill="black"/>
</g>
</g>
</g>
</svg>
